<svg width="1200" height="900" viewBox="0 0 1200 900" fill="none" xmlns="http://www.w3.org/2000/svg">
<rect width="1200" height="900" fill="white"/>
<path fill-rule="evenodd" clip-rule="evenodd" d="M852 738C855.314 738 858 740.686 858 744V804C858 807.314 855.314 810 852 810H348C344.686 810 342 807.314 342 804V744C342 740.686 344.686 738 348 738H852Z" fill="#7C7C7C"/>
<rect x="415" y="753" width="340" height="10" fill="#D8D8D8"/>
<path fill-rule="evenodd" clip-rule="evenodd" d="M357 753H379V763H357V753Z" fill="#D7D7D7"/>
<rect x="804" y="753" width="10" height="10" fill="#D7D400"/>
<rect x="789" y="753" width="10" height="10" fill="#FF3C00"/>
<path fill-rule="evenodd" clip-rule="evenodd" d="M820 753H842V762.778H820V753Z" fill="#00CD00"/>
<rect x="415" y="769" width="340" height="10" fill="#D8D8D8"/>
<path fill-rule="evenodd" clip-rule="evenodd" d="M357 769H379V779H357V769Z" fill="#D7D7D7"/>
<rect x="804" y="769" width="10" height="10" fill="#D7D400"/>
<rect x="789" y="769" width="10" height="10" fill="#FF3C00"/>
<path fill-rule="evenodd" clip-rule="evenodd" d="M820 769H842V778.778H820V769Z" fill="#00CD00"/>
<rect x="415" y="785" width="340" height="10" fill="#D8D8D8"/>
<path fill-rule="evenodd" clip-rule="evenodd" d="M357 785H379V795H357V785Z" fill="#D7D7D7"/>
<rect x="804" y="785" width="10" height="10" fill="#D7D400"/>
<rect x="789" y="785" width="10" height="10" fill="#FF3C00"/>
<path fill-rule="evenodd" clip-rule="evenodd" d="M820 785H842V794.778H820V785Z" fill="#00CD00"/>
<path fill-rule="evenodd" clip-rule="evenodd" d="M852 90C855.314 90 858 92.6863 858 96V722.4C858 725.714 855.314 728.4 852 728.4H348C344.686 728.4 342 725.714 342 722.4V96C342 92.6863 344.686 90 348 90H852Z" fill="#7C7C7C"/>
<rect x="357" y="128" width="484" height="556" rx="2.4" fill="white"/>
<path fill-rule="evenodd" clip-rule="evenodd" d="M357.6 104.4H841.6V114.4H357.6V104.4Z" fill="#D7D7D7"/>
<path fill-rule="evenodd" clip-rule="evenodd" d="M357.6 699H841.6V709H357.6V699Z" fill="#D7D7D7"/>
<path fill-rule="evenodd" clip-rule="evenodd" d="M811 163.41V388.707C811 391.695 808.555 394.117 805.54 394.117H613.46C610.445 394.117 608 391.695 608 388.707V163.41C608 160.422 610.445 158 613.46 158H805.54C808.555 158 811 160.422 811 163.41Z" fill="#D2D2D2"/>
<path fill-rule="evenodd" clip-rule="evenodd" d="M686.888 370.251H801.446V374.706H686.888V370.251Z" fill="#A3A3A3"/>
<path fill-rule="evenodd" clip-rule="evenodd" d="M686.888 376.933H801.446V381.388H686.888V376.933Z" fill="#A3A3A3"/>
<path fill-rule="evenodd" clip-rule="evenodd" d="M686.888 383.616H801.446V388.071H686.888V383.616Z" fill="#A3A3A3"/>
<path fill-rule="evenodd" clip-rule="evenodd" d="M615.607 370.251H624.199V374.706H615.607V370.251Z" fill="#A3A3A3"/>
<path fill-rule="evenodd" clip-rule="evenodd" d="M615.607 376.933H624.199V381.388H615.607V376.933Z" fill="#A3A3A3"/>
<path fill-rule="evenodd" clip-rule="evenodd" d="M615.607 383.616H624.199V388.071H615.607V383.616Z" fill="#A3A3A3"/>
<path fill-rule="evenodd" clip-rule="evenodd" d="M615.637 165.319H801.476V169.774H615.637V165.319Z" fill="#A3A3A3"/>
<path fill-rule="evenodd" clip-rule="evenodd" d="M617.871 176.88H800.688C801.892 176.88 802.868 177.854 802.868 179.056V361.584C802.868 362.786 801.892 363.76 800.688 363.76H617.871C616.668 363.76 615.692 362.786 615.692 361.584V179.056C615.692 177.854 616.668 176.88 617.871 176.88Z" fill="white"/>
<path d="M633.166 370.978H630.535L633.367 379.56H636.552L639.385 370.978H636.753L634.993 377.029H634.926L633.166 370.978ZM642.165 370.978H639.835V379.56H642.165V370.978ZM642.893 379.56H645.223V376.727H646.028L647.536 379.56H650.067L648.324 376.359C649.237 375.919 649.782 375.085 649.782 373.895C649.782 372.068 648.504 370.978 646.597 370.978H642.893V379.56ZM645.223 374.917V372.839H646.044C646.861 372.839 647.352 373.157 647.352 373.895C647.352 374.628 646.861 374.917 646.044 374.917H645.223ZM650.165 372.856H652.746V379.56H655.042V372.856H657.623V370.978H650.165V372.856ZM663.203 370.978V376.275C663.203 377.075 662.628 377.649 661.828 377.649C661.028 377.649 660.454 377.075 660.454 376.275V370.978H658.124V376.476C658.124 378.437 659.607 379.661 661.828 379.661C664.032 379.661 665.532 378.437 665.532 376.476V370.978H663.203ZM668.493 379.56L668.987 377.917H671.82L672.314 379.56H674.828L671.996 370.978H668.811L665.979 379.56H668.493ZM669.515 376.174L670.37 373.342H670.437L671.292 376.174H669.515ZM675.279 379.56H681.078V377.683H677.609V370.978H675.279V379.56Z" fill="#4A4A4A"/>
<path d="M630.914 381.411V389.252H632.997V384.688H633.058L634.804 389.191H636.06L637.806 384.719H637.867V389.252H639.95V381.411H637.3L635.478 385.852H635.386L633.564 381.411H630.914ZM642.652 389.252L643.104 387.751H645.692L646.144 389.252H648.441L645.853 381.411H642.943L640.355 389.252H642.652ZM643.586 386.159L644.367 383.571H644.429L645.21 386.159H643.586ZM655.804 384.352C655.636 382.407 654.212 381.304 652.236 381.304C650.123 381.304 648.454 382.713 648.454 385.332C648.454 387.939 650.077 389.359 652.236 389.359C654.533 389.359 655.697 387.767 655.804 386.434L653.645 386.419C653.538 387.089 653.063 387.506 652.282 387.506C651.245 387.506 650.643 386.771 650.643 385.332C650.643 383.969 651.225 383.157 652.297 383.157C653.117 383.157 653.584 383.639 653.645 384.352H655.804ZM656.427 389.252H658.555V386.189H661.373V389.252H663.502V381.411H661.373V384.474H658.555V381.411H656.427V389.252ZM666.298 381.411H664.169V389.252H666.298V381.411ZM673.748 381.411H671.619V385.515H671.558L668.771 381.411H666.963V389.252H669.092V385.133H669.138L671.971 389.252H673.748V381.411ZM674.411 389.252H680.047V387.537H676.54V386.189H679.771V384.474H676.54V383.126H680.062V381.411H674.411V389.252Z" fill="#4A4A4A"/>
<path fill-rule="evenodd" clip-rule="evenodd" d="M631 190H787L631 350V190Z" fill="#555555"/>
<path fill-rule="evenodd" clip-rule="evenodd" d="M787 190V350H631L787 190Z" fill="#3A3A3A"/>
<path d="M649.98 257.981V273.944H653.254V263.515H653.386L657.517 273.866H659.746L663.877 263.554H664.01V273.944H667.284V257.981H663.121L658.725 268.706H658.538L654.142 257.981H649.98ZM684.843 265.963C684.843 260.74 681.6 257.763 677.368 257.763C673.112 257.763 669.893 260.74 669.893 265.963C669.893 271.161 673.112 274.162 677.368 274.162C681.6 274.162 684.843 271.185 684.843 265.963ZM681.421 265.963C681.421 269.345 679.816 271.177 677.368 271.177C674.913 271.177 673.315 269.345 673.315 265.963C673.315 262.58 674.913 260.748 677.368 260.748C679.816 260.748 681.421 262.58 681.421 265.963ZM700.805 257.981H697.445V268.02H697.305L690.415 257.981H687.453V273.944H690.828V263.897H690.945L697.889 273.944H700.805V257.981ZM718.372 265.963C718.372 260.74 715.129 257.763 710.897 257.763C706.641 257.763 703.422 260.74 703.422 265.963C703.422 271.161 706.641 274.162 710.897 274.162C715.129 274.162 718.372 271.185 718.372 265.963ZM714.95 265.963C714.95 269.345 713.344 271.177 710.897 271.177C708.442 271.177 706.844 269.345 706.844 265.963C706.844 262.58 708.442 260.748 710.897 260.748C713.344 260.748 714.95 262.58 714.95 265.963ZM720.982 273.944H731.2V271.161H724.357V257.981H720.982V273.944ZM736.92 257.981H733.545V273.944H736.92V257.981ZM739.198 260.764H744.085V273.944H747.421V260.764H752.308V257.981H739.198V260.764ZM754.577 273.944H757.952V267.35H764.804V273.944H768.171V257.981H764.804V264.567H757.952V257.981H754.577V273.944Z" fill="white"/>
<path fill-rule="evenodd" clip-rule="evenodd" d="M591 163.41V388.707C591 391.695 588.555 394.117 585.54 394.117H393.46C390.445 394.117 388 391.695 388 388.707V163.41C388 160.422 390.445 158 393.46 158H585.54C588.555 158 591 160.422 591 163.41Z" fill="#D2D2D2"/>
<path fill-rule="evenodd" clip-rule="evenodd" d="M466.888 370.251H581.446V374.706H466.888V370.251Z" fill="#A3A3A3"/>
<path fill-rule="evenodd" clip-rule="evenodd" d="M466.888 376.933H581.446V381.388H466.888V376.933Z" fill="#A3A3A3"/>
<path fill-rule="evenodd" clip-rule="evenodd" d="M466.888 383.616H581.446V388.071H466.888V383.616Z" fill="#A3A3A3"/>
<path fill-rule="evenodd" clip-rule="evenodd" d="M395.607 370.251H404.199V374.706H395.607V370.251Z" fill="#A3A3A3"/>
<path fill-rule="evenodd" clip-rule="evenodd" d="M395.607 376.933H404.199V381.388H395.607V376.933Z" fill="#A3A3A3"/>
<path fill-rule="evenodd" clip-rule="evenodd" d="M395.607 383.616H404.199V388.071H395.607V383.616Z" fill="#A3A3A3"/>
<path fill-rule="evenodd" clip-rule="evenodd" d="M395.637 165.319H581.476V169.774H395.637V165.319Z" fill="#A3A3A3"/>
<path fill-rule="evenodd" clip-rule="evenodd" d="M397.871 176.88H580.688C581.892 176.88 582.868 177.854 582.868 179.056V361.584C582.868 362.786 581.892 363.76 580.688 363.76H397.871C396.668 363.76 395.692 362.786 395.692 361.584V179.056C395.692 177.854 396.668 176.88 397.871 176.88Z" fill="white"/>
<path d="M413.166 370.978H410.535L413.367 379.56H416.552L419.385 370.978H416.753L414.993 377.029H414.926L413.166 370.978ZM422.165 370.978H419.835V379.56H422.165V370.978ZM422.893 379.56H425.223V376.727H426.028L427.536 379.56H430.067L428.324 376.359C429.237 375.919 429.782 375.085 429.782 373.895C429.782 372.068 428.504 370.978 426.597 370.978H422.893V379.56ZM425.223 374.917V372.839H426.044C426.861 372.839 427.352 373.157 427.352 373.895C427.352 374.628 426.861 374.917 426.044 374.917H425.223ZM430.165 372.856H432.746V379.56H435.042V372.856H437.623V370.978H430.165V372.856ZM443.203 370.978V376.275C443.203 377.075 442.628 377.649 441.828 377.649C441.028 377.649 440.454 377.075 440.454 376.275V370.978H438.124V376.476C438.124 378.437 439.607 379.661 441.828 379.661C444.032 379.661 445.532 378.437 445.532 376.476V370.978H443.203ZM448.493 379.56L448.987 377.917H451.82L452.314 379.56H454.828L451.996 370.978H448.811L445.979 379.56H448.493ZM449.515 376.174L450.37 373.342H450.437L451.292 376.174H449.515ZM455.279 379.56H461.078V377.683H457.609V370.978H455.279V379.56Z" fill="#4A4A4A"/>
<path d="M410.914 381.411V389.252H412.997V384.688H413.058L414.804 389.191H416.06L417.806 384.719H417.867V389.252H419.95V381.411H417.3L415.478 385.852H415.386L413.564 381.411H410.914ZM422.652 389.252L423.104 387.751H425.692L426.144 389.252H428.441L425.853 381.411H422.943L420.355 389.252H422.652ZM423.586 386.159L424.367 383.571H424.429L425.21 386.159H423.586ZM435.804 384.352C435.636 382.407 434.212 381.304 432.236 381.304C430.123 381.304 428.454 382.713 428.454 385.332C428.454 387.939 430.077 389.359 432.236 389.359C434.533 389.359 435.697 387.767 435.804 386.434L433.645 386.419C433.538 387.089 433.063 387.506 432.282 387.506C431.245 387.506 430.643 386.771 430.643 385.332C430.643 383.969 431.225 383.157 432.297 383.157C433.117 383.157 433.584 383.639 433.645 384.352H435.804ZM436.427 389.252H438.555V386.189H441.373V389.252H443.502V381.411H441.373V384.474H438.555V381.411H436.427V389.252ZM446.298 381.411H444.169V389.252H446.298V381.411ZM453.748 381.411H451.619V385.515H451.558L448.771 381.411H446.963V389.252H449.092V385.133H449.138L451.971 389.252H453.748V381.411ZM454.411 389.252H460.047V387.537H456.54V386.189H459.771V384.474H456.54V383.126H460.062V381.411H454.411V389.252Z" fill="#4A4A4A"/>
<path fill-rule="evenodd" clip-rule="evenodd" d="M411.36 190H567.36L411.36 350V190Z" fill="#555555"/>
<path fill-rule="evenodd" clip-rule="evenodd" d="M567.36 190V350H411.36L567.36 190Z" fill="#3A3A3A"/>
<path d="M430.34 257.981V273.944H433.614V263.515H433.746L437.877 273.866H440.106L444.237 263.554H444.37V273.944H447.643V257.981H443.481L439.085 268.706H438.898L434.502 257.981H430.34ZM465.203 265.963C465.203 260.74 461.96 257.763 457.728 257.763C453.472 257.763 450.253 260.74 450.253 265.963C450.253 271.161 453.472 274.162 457.728 274.162C461.96 274.162 465.203 271.185 465.203 265.963ZM461.781 265.963C461.781 269.345 460.176 271.177 457.728 271.177C455.273 271.177 453.675 269.345 453.675 265.963C453.675 262.58 455.273 260.748 457.728 260.748C460.176 260.748 461.781 262.58 461.781 265.963ZM481.165 257.981H477.805V268.02H477.665L470.775 257.981H467.813V273.944H471.188V263.897H471.305L478.249 273.944H481.165V257.981ZM498.732 265.963C498.732 260.74 495.489 257.763 491.257 257.763C487.001 257.763 483.782 260.74 483.782 265.963C483.782 271.161 487.001 274.162 491.257 274.162C495.489 274.162 498.732 271.185 498.732 265.963ZM495.31 265.963C495.31 269.345 493.704 271.177 491.257 271.177C488.802 271.177 487.204 269.345 487.204 265.963C487.204 262.58 488.802 260.748 491.257 260.748C493.704 260.748 495.31 262.58 495.31 265.963ZM501.342 273.944H511.56V271.161H504.717V257.981H501.342V273.944ZM517.28 257.981H513.905V273.944H517.28V257.981ZM519.558 260.764H524.445V273.944H527.781V260.764H532.668V257.981H519.558V260.764ZM534.937 273.944H538.312V267.35H545.164V273.944H548.531V257.981H545.164V264.567H538.312V257.981H534.937V273.944Z" fill="white"/>
<path fill-rule="evenodd" clip-rule="evenodd" d="M591 420.41V645.707C591 648.695 588.555 651.117 585.54 651.117H393.46C390.445 651.117 388 648.695 388 645.707V420.41C388 417.422 390.445 415 393.46 415H585.54C588.555 415 591 417.422 591 420.41Z" fill="#D2D2D2"/>
<path fill-rule="evenodd" clip-rule="evenodd" d="M466.888 627.251H581.446V631.706H466.888V627.251Z" fill="#A3A3A3"/>
<path fill-rule="evenodd" clip-rule="evenodd" d="M466.888 633.933H581.446V638.388H466.888V633.933Z" fill="#A3A3A3"/>
<path fill-rule="evenodd" clip-rule="evenodd" d="M466.888 640.616H581.446V645.071H466.888V640.616Z" fill="#A3A3A3"/>
<path fill-rule="evenodd" clip-rule="evenodd" d="M395.607 627.251H404.199V631.706H395.607V627.251Z" fill="#A3A3A3"/>
<path fill-rule="evenodd" clip-rule="evenodd" d="M395.607 633.933H404.199V638.388H395.607V633.933Z" fill="#A3A3A3"/>
<path fill-rule="evenodd" clip-rule="evenodd" d="M395.607 640.616H404.199V645.071H395.607V640.616Z" fill="#A3A3A3"/>
<path fill-rule="evenodd" clip-rule="evenodd" d="M395.637 422.319H581.476V426.774H395.637V422.319Z" fill="#A3A3A3"/>
<path fill-rule="evenodd" clip-rule="evenodd" d="M397.871 433.88H580.688C581.892 433.88 582.868 434.854 582.868 436.056V618.584C582.868 619.786 581.892 620.76 580.688 620.76H397.871C396.668 620.76 395.692 619.786 395.692 618.584V436.056C395.692 434.854 396.668 433.88 397.871 433.88Z" fill="white"/>
<path d="M413.166 627.978H410.535L413.367 636.56H416.552L419.385 627.978H416.753L414.993 634.029H414.926L413.166 627.978ZM422.165 627.978H419.835V636.56H422.165V627.978ZM422.893 636.56H425.223V633.727H426.028L427.536 636.56H430.067L428.324 633.359C429.237 632.919 429.782 632.085 429.782 630.895C429.782 629.068 428.504 627.978 426.597 627.978H422.893V636.56ZM425.223 631.917V629.839H426.044C426.861 629.839 427.352 630.157 427.352 630.895C427.352 631.628 426.861 631.917 426.044 631.917H425.223ZM430.165 629.856H432.746V636.56H435.042V629.856H437.623V627.978H430.165V629.856ZM443.203 627.978V633.275C443.203 634.075 442.628 634.649 441.828 634.649C441.028 634.649 440.454 634.075 440.454 633.275V627.978H438.124V633.476C438.124 635.437 439.607 636.661 441.828 636.661C444.032 636.661 445.532 635.437 445.532 633.476V627.978H443.203ZM448.493 636.56L448.987 634.917H451.82L452.314 636.56H454.828L451.996 627.978H448.811L445.979 636.56H448.493ZM449.515 633.174L450.37 630.342H450.437L451.292 633.174H449.515ZM455.279 636.56H461.078V634.683H457.609V627.978H455.279V636.56Z" fill="#4A4A4A"/>
<path d="M410.914 638.411V646.252H412.997V641.688H413.058L414.804 646.191H416.06L417.806 641.719H417.867V646.252H419.95V638.411H417.3L415.478 642.852H415.386L413.564 638.411H410.914ZM422.652 646.252L423.104 644.751H425.692L426.144 646.252H428.441L425.853 638.411H422.943L420.355 646.252H422.652ZM423.586 643.159L424.367 640.571H424.429L425.21 643.159H423.586ZM435.804 641.352C435.636 639.407 434.212 638.304 432.236 638.304C430.123 638.304 428.454 639.713 428.454 642.332C428.454 644.939 430.077 646.359 432.236 646.359C434.533 646.359 435.697 644.767 435.804 643.434L433.645 643.419C433.538 644.089 433.063 644.506 432.282 644.506C431.245 644.506 430.643 643.771 430.643 642.332C430.643 640.969 431.225 640.157 432.297 640.157C433.117 640.157 433.584 640.639 433.645 641.352H435.804ZM436.427 646.252H438.555V643.189H441.373V646.252H443.502V638.411H441.373V641.474H438.555V638.411H436.427V646.252ZM446.298 638.411H444.169V646.252H446.298V638.411ZM453.748 638.411H451.619V642.515H451.558L448.771 638.411H446.963V646.252H449.092V642.133H449.138L451.971 646.252H453.748V638.411ZM454.411 646.252H460.047V644.537H456.54V643.189H459.771V641.474H456.54V640.126H460.062V638.411H454.411V646.252Z" fill="#4A4A4A"/>
<path fill-rule="evenodd" clip-rule="evenodd" d="M411 447H567L411 607V447Z" fill="#555555"/>
<path fill-rule="evenodd" clip-rule="evenodd" d="M567 447V607H411L567 447Z" fill="#3A3A3A"/>
<path d="M429.98 514.981V530.944H433.253V520.515H433.386L437.517 530.866H439.746L443.877 520.554H444.01V530.944H447.283V514.981H443.121L438.725 525.706H438.538L434.142 514.981H429.98ZM464.843 522.963C464.843 517.74 461.6 514.763 457.368 514.763C453.112 514.763 449.893 517.74 449.893 522.963C449.893 528.161 453.112 531.162 457.368 531.162C461.6 531.162 464.843 528.185 464.843 522.963ZM461.421 522.963C461.421 526.345 459.815 528.177 457.368 528.177C454.913 528.177 453.315 526.345 453.315 522.963C453.315 519.58 454.913 517.748 457.368 517.748C459.815 517.748 461.421 519.58 461.421 522.963ZM480.804 514.981H477.445V525.02H477.305L470.414 514.981H467.453V530.944H470.828V520.897H470.945L477.889 530.944H480.804V514.981ZM498.372 522.963C498.372 517.74 495.129 514.763 490.897 514.763C486.641 514.763 483.422 517.74 483.422 522.963C483.422 528.161 486.641 531.162 490.897 531.162C495.129 531.162 498.372 528.185 498.372 522.963ZM494.95 522.963C494.95 526.345 493.344 528.177 490.897 528.177C488.442 528.177 486.844 526.345 486.844 522.963C486.844 519.58 488.442 517.748 490.897 517.748C493.344 517.748 494.95 519.58 494.95 522.963ZM500.981 530.944H511.2V528.161H504.356V514.981H500.981V530.944ZM516.92 514.981H513.545V530.944H516.92V514.981ZM519.198 517.764H524.085V530.944H527.421V517.764H532.308V514.981H519.198V517.764ZM534.577 530.944H537.952V524.35H544.803V530.944H548.171V514.981H544.803V521.567H537.952V514.981H534.577V530.944Z" fill="white"/>
<path fill-rule="evenodd" clip-rule="evenodd" d="M811 420.41V645.707C811 648.695 808.555 651.117 805.54 651.117H613.46C610.445 651.117 608 648.695 608 645.707V420.41C608 417.422 610.445 415 613.46 415H805.54C808.555 415 811 417.422 811 420.41Z" fill="#D2D2D2"/>
<path fill-rule="evenodd" clip-rule="evenodd" d="M686.888 627.251H801.446V631.706H686.888V627.251Z" fill="#A3A3A3"/>
<path fill-rule="evenodd" clip-rule="evenodd" d="M686.888 633.933H801.446V638.388H686.888V633.933Z" fill="#A3A3A3"/>
<path fill-rule="evenodd" clip-rule="evenodd" d="M686.888 640.616H801.446V645.071H686.888V640.616Z" fill="#A3A3A3"/>
<path fill-rule="evenodd" clip-rule="evenodd" d="M615.607 627.251H624.199V631.706H615.607V627.251Z" fill="#A3A3A3"/>
<path fill-rule="evenodd" clip-rule="evenodd" d="M615.607 633.933H624.199V638.388H615.607V633.933Z" fill="#A3A3A3"/>
<path fill-rule="evenodd" clip-rule="evenodd" d="M615.607 640.616H624.199V645.071H615.607V640.616Z" fill="#A3A3A3"/>
<path fill-rule="evenodd" clip-rule="evenodd" d="M615.637 422.319H801.476V426.774H615.637V422.319Z" fill="#A3A3A3"/>
<path fill-rule="evenodd" clip-rule="evenodd" d="M617.871 433.88H800.688C801.892 433.88 802.868 434.854 802.868 436.056V618.584C802.868 619.786 801.892 620.76 800.688 620.76H617.871C616.668 620.76 615.692 619.786 615.692 618.584V436.056C615.692 434.854 616.668 433.88 617.871 433.88Z" fill="white"/>
<path d="M633.166 627.978H630.535L633.367 636.56H636.552L639.385 627.978H636.753L634.993 634.029H634.926L633.166 627.978ZM642.165 627.978H639.835V636.56H642.165V627.978ZM642.893 636.56H645.223V633.727H646.028L647.536 636.56H650.067L648.324 633.359C649.237 632.919 649.782 632.085 649.782 630.895C649.782 629.068 648.504 627.978 646.597 627.978H642.893V636.56ZM645.223 631.917V629.839H646.044C646.861 629.839 647.352 630.157 647.352 630.895C647.352 631.628 646.861 631.917 646.044 631.917H645.223ZM650.165 629.856H652.746V636.56H655.042V629.856H657.623V627.978H650.165V629.856ZM663.203 627.978V633.275C663.203 634.075 662.628 634.649 661.828 634.649C661.028 634.649 660.454 634.075 660.454 633.275V627.978H658.124V633.476C658.124 635.437 659.607 636.661 661.828 636.661C664.032 636.661 665.532 635.437 665.532 633.476V627.978H663.203ZM668.493 636.56L668.987 634.917H671.82L672.314 636.56H674.828L671.996 627.978H668.811L665.979 636.56H668.493ZM669.515 633.174L670.37 630.342H670.437L671.292 633.174H669.515ZM675.279 636.56H681.078V634.683H677.609V627.978H675.279V636.56Z" fill="#4A4A4A"/>
<path d="M630.914 638.411V646.252H632.997V641.688H633.058L634.804 646.191H636.06L637.806 641.719H637.867V646.252H639.95V638.411H637.3L635.478 642.852H635.386L633.564 638.411H630.914ZM642.652 646.252L643.104 644.751H645.692L646.144 646.252H648.441L645.853 638.411H642.943L640.355 646.252H642.652ZM643.586 643.159L644.367 640.571H644.429L645.21 643.159H643.586ZM655.804 641.352C655.636 639.407 654.212 638.304 652.236 638.304C650.123 638.304 648.454 639.713 648.454 642.332C648.454 644.939 650.077 646.359 652.236 646.359C654.533 646.359 655.697 644.767 655.804 643.434L653.645 643.419C653.538 644.089 653.063 644.506 652.282 644.506C651.245 644.506 650.643 643.771 650.643 642.332C650.643 640.969 651.225 640.157 652.297 640.157C653.117 640.157 653.584 640.639 653.645 641.352H655.804ZM656.427 646.252H658.555V643.189H661.373V646.252H663.502V638.411H661.373V641.474H658.555V638.411H656.427V646.252ZM666.298 638.411H664.169V646.252H666.298V638.411ZM673.748 638.411H671.619V642.515H671.558L668.771 638.411H666.963V646.252H669.092V642.133H669.138L671.971 646.252H673.748V638.411ZM674.411 646.252H680.047V644.537H676.54V643.189H679.771V641.474H676.54V640.126H680.062V638.411H674.411V646.252Z" fill="#4A4A4A"/>
<path fill-rule="evenodd" clip-rule="evenodd" d="M631 447H787L631 607V447Z" fill="#555555"/>
<path fill-rule="evenodd" clip-rule="evenodd" d="M787 447V607H631L787 447Z" fill="#3A3A3A"/>
<path d="M649.98 514.981V530.944H653.254V520.515H653.386L657.517 530.866H659.746L663.877 520.554H664.01V530.944H667.284V514.981H663.121L658.725 525.706H658.538L654.142 514.981H649.98ZM684.843 522.963C684.843 517.74 681.6 514.763 677.368 514.763C673.112 514.763 669.893 517.74 669.893 522.963C669.893 528.161 673.112 531.162 677.368 531.162C681.6 531.162 684.843 528.185 684.843 522.963ZM681.421 522.963C681.421 526.345 679.816 528.177 677.368 528.177C674.913 528.177 673.315 526.345 673.315 522.963C673.315 519.58 674.913 517.748 677.368 517.748C679.816 517.748 681.421 519.58 681.421 522.963ZM700.805 514.981H697.445V525.02H697.305L690.415 514.981H687.453V530.944H690.828V520.897H690.945L697.889 530.944H700.805V514.981ZM718.372 522.963C718.372 517.74 715.129 514.763 710.897 514.763C706.641 514.763 703.422 517.74 703.422 522.963C703.422 528.161 706.641 531.162 710.897 531.162C715.129 531.162 718.372 528.185 718.372 522.963ZM714.95 522.963C714.95 526.345 713.344 528.177 710.897 528.177C708.442 528.177 706.844 526.345 706.844 522.963C706.844 519.58 708.442 517.748 710.897 517.748C713.344 517.748 714.95 519.58 714.95 522.963ZM720.982 530.944H731.2V528.161H724.357V514.981H720.982V530.944ZM736.92 514.981H733.545V530.944H736.92V514.981ZM739.198 517.764H744.085V530.944H747.421V517.764H752.308V514.981H739.198V517.764ZM754.577 530.944H757.952V524.35H764.804V530.944H768.171V514.981H764.804V521.567H757.952V514.981H754.577V530.944Z" fill="white"/>
</svg>
