<svg width="1200" height="900" viewBox="0 0 1200 900" fill="none" xmlns="http://www.w3.org/2000/svg">
<rect width="1200" height="900" fill="white"/>
<path d="M76.3267 245.925H109.725V336H132.523V245.925H165.922V226.909H76.3267V245.925ZM198.995 288.699C199.048 278.152 205.494 271.973 214.762 271.973C223.977 271.973 229.411 277.886 229.357 287.953V336H252.049V283.905C252.102 264.729 240.81 253.116 223.764 253.116C211.353 253.116 203.043 258.976 199.315 268.617H198.356V226.909H176.303V336H198.995V288.699ZM303.246 337.598C323.488 337.598 337.124 327.744 340.32 312.562L319.333 311.178C317.043 317.41 311.183 320.659 303.619 320.659C292.273 320.659 285.082 313.148 285.082 300.95V300.897H340.8V294.665C340.8 266.859 323.967 253.116 302.341 253.116C278.264 253.116 262.657 270.215 262.657 295.464C262.657 321.405 278.051 337.598 303.246 337.598ZM285.082 286.835C285.562 277.513 292.646 270.055 302.714 270.055C312.568 270.055 319.386 277.087 319.44 286.835H285.082ZM419.397 337.598C441.184 337.598 454.873 324.814 455.939 306.011H434.525C433.193 314.746 427.441 319.647 419.664 319.647C409.064 319.647 402.192 310.751 402.192 295.091C402.192 279.643 409.117 270.801 419.664 270.801C427.973 270.801 433.3 276.288 434.525 284.438H455.939C454.98 265.528 440.651 253.116 419.291 253.116C394.468 253.116 379.127 270.322 379.127 295.411C379.127 320.286 394.202 337.598 419.397 337.598ZM489.851 337.545C501.942 337.545 509.773 332.271 513.768 324.654H514.407V336H535.927V280.815C535.927 261.32 519.414 253.116 501.197 253.116C481.594 253.116 468.704 262.491 465.561 277.406L486.548 279.111C488.093 273.678 492.94 269.683 501.09 269.683C508.814 269.683 513.235 273.571 513.235 280.283V280.602C513.235 285.876 507.642 286.568 493.42 287.953C477.226 289.445 462.684 294.878 462.684 313.148C462.684 329.342 474.243 337.545 489.851 337.545ZM496.349 321.884C489.371 321.884 484.364 318.635 484.364 312.403C484.364 306.011 489.638 302.868 497.628 301.749C502.582 301.057 510.678 299.885 513.395 298.074V306.756C513.395 315.332 506.31 321.884 496.349 321.884ZM617.659 277.513C615.635 262.438 603.49 253.116 582.823 253.116C561.889 253.116 548.093 262.811 548.146 278.578C548.093 290.83 555.816 298.766 571.796 301.962L585.965 304.786C593.103 306.224 596.353 308.834 596.459 312.935C596.353 317.783 591.079 321.245 583.142 321.245C575.046 321.245 569.666 317.783 568.281 311.124L545.962 312.296C548.093 327.957 561.409 337.598 583.089 337.598C604.289 337.598 619.47 326.785 619.524 310.645C619.47 298.82 611.747 291.735 595.873 288.486L581.065 285.503C573.448 283.852 570.625 281.241 570.678 277.3C570.625 272.399 576.164 269.203 583.196 269.203C591.079 269.203 595.767 273.518 596.885 278.791L617.659 277.513ZM667.152 337.598C687.394 337.598 701.03 327.744 704.226 312.562L683.239 311.178C680.948 317.41 675.089 320.659 667.525 320.659C656.179 320.659 648.988 313.148 648.988 300.95V300.897H704.705V294.665C704.705 266.859 687.873 253.116 666.247 253.116C642.17 253.116 626.563 270.215 626.563 295.464C626.563 321.405 641.957 337.598 667.152 337.598ZM648.988 286.835C649.467 277.513 656.552 270.055 666.619 270.055C676.474 270.055 683.292 277.087 683.345 286.835H648.988ZM790.334 254.182H774.088V248.695C774.088 243.156 776.325 239.906 782.983 239.906C785.7 239.906 788.47 240.492 790.281 241.078L794.276 224.033C791.453 223.18 785.221 221.795 778.243 221.795C762.849 221.795 751.396 230.478 751.396 248.269V254.182H739.837V271.227H751.396V336H774.088V271.227H790.334V254.182ZM834.287 337.598C859.11 337.598 874.557 320.606 874.557 295.411C874.557 270.055 859.11 253.116 834.287 253.116C809.465 253.116 794.017 270.055 794.017 295.411C794.017 320.606 809.465 337.598 834.287 337.598ZM834.394 320.02C822.941 320.02 817.082 309.526 817.082 295.251C817.082 280.975 822.941 270.428 834.394 270.428C845.633 270.428 851.493 280.975 851.493 295.251C851.493 309.526 845.633 320.02 834.394 320.02ZM885.365 336H908.057V289.711C908.057 279.643 915.407 272.719 925.422 272.719C928.564 272.719 932.879 273.251 935.01 273.944V253.809C932.986 253.33 930.162 253.01 927.872 253.01C918.71 253.01 911.199 258.337 908.216 268.457H907.364V254.182H885.365V336ZM117.023 460.598C138.809 460.598 152.499 447.814 153.564 429.011H132.151C130.819 437.746 125.066 442.647 117.289 442.647C106.689 442.647 99.8175 433.751 99.8175 418.091C99.8175 402.643 106.742 393.801 117.289 393.801C125.599 393.801 130.925 399.288 132.151 407.438H153.564C152.605 388.528 138.276 376.116 116.916 376.116C92.0938 376.116 76.7528 393.322 76.7528 418.411C76.7528 443.286 91.8274 460.598 117.023 460.598ZM201.112 460.598C225.935 460.598 241.382 443.606 241.382 418.411C241.382 393.055 225.935 376.116 201.112 376.116C176.29 376.116 160.843 393.055 160.843 418.411C160.843 443.606 176.29 460.598 201.112 460.598ZM201.219 443.02C189.767 443.02 183.907 432.526 183.907 418.251C183.907 403.975 189.767 393.428 201.219 393.428C212.458 393.428 218.318 403.975 218.318 418.251C218.318 432.526 212.458 443.02 201.219 443.02ZM274.882 411.699C274.935 401.152 281.221 394.973 290.382 394.973C299.491 394.973 304.978 400.939 304.924 410.953V459H327.616V406.905C327.616 387.835 316.43 376.116 299.385 376.116C287.24 376.116 278.451 382.082 274.775 391.617H273.816V377.182H252.19V459H274.882V411.699ZM385.072 377.182H369.678V357.58H346.986V377.182H335.8V394.227H346.986V436.841C346.88 452.874 357.8 460.811 374.259 460.119C380.118 459.906 384.273 458.734 386.564 457.988L382.995 441.102C381.876 441.315 379.479 441.848 377.349 441.848C372.821 441.848 369.678 440.143 369.678 433.858V394.227H385.072V377.182ZM419.238 460.545C431.329 460.545 439.159 455.271 443.154 447.654H443.794V459H465.314V403.815C465.314 384.32 448.801 376.116 430.583 376.116C410.981 376.116 398.091 385.491 394.948 400.406L415.935 402.111C417.48 396.678 422.327 392.683 430.477 392.683C438.201 392.683 442.622 396.571 442.622 403.283V403.602C442.622 408.876 437.029 409.568 422.806 410.953C406.613 412.445 392.071 417.878 392.071 436.148C392.071 452.342 403.63 460.545 419.238 460.545ZM425.736 444.884C418.758 444.884 413.751 441.635 413.751 435.403C413.751 429.011 419.024 425.868 427.015 424.749C431.968 424.057 440.065 422.885 442.782 421.074V429.756C442.782 438.332 435.697 444.884 425.736 444.884ZM478.971 459H501.663V377.182H478.971V459ZM490.37 366.635C497.135 366.635 502.675 361.468 502.675 355.129C502.675 348.844 497.135 343.677 490.37 343.677C483.658 343.677 478.119 348.844 478.119 355.129C478.119 361.468 483.658 366.635 490.37 366.635ZM538.584 411.699C538.638 401.152 544.923 394.973 554.085 394.973C563.194 394.973 568.68 400.939 568.627 410.953V459H591.319V406.905C591.319 387.835 580.133 376.116 563.087 376.116C550.942 376.116 542.153 382.082 538.478 391.617H537.519V377.182H515.893V459H538.584V411.699ZM642.543 460.598C662.784 460.598 676.421 450.744 679.617 435.562L658.629 434.178C656.339 440.41 650.48 443.659 642.916 443.659C631.57 443.659 624.379 436.148 624.379 423.95V423.897H680.096V417.665C680.096 389.859 663.264 376.116 641.637 376.116C617.561 376.116 601.953 393.215 601.953 418.464C601.953 444.405 617.347 460.598 642.543 460.598ZM624.379 409.835C624.858 400.513 631.943 393.055 642.01 393.055C651.865 393.055 658.683 400.087 658.736 409.835H624.379ZM690.957 459H713.649V412.711C713.649 402.643 721 395.719 731.014 395.719C734.157 395.719 738.471 396.251 740.602 396.944V376.809C738.578 376.33 735.755 376.01 733.464 376.01C724.302 376.01 716.791 381.337 713.809 391.457H712.956V377.182H690.957V459ZM816.462 400.513C814.438 385.438 802.293 376.116 781.625 376.116C760.691 376.116 746.895 385.811 746.948 401.578C746.895 413.83 754.619 421.766 770.599 424.962L784.768 427.786C791.906 429.224 795.155 431.834 795.262 435.935C795.155 440.783 789.882 444.245 781.945 444.245C773.848 444.245 768.468 440.783 767.083 434.124L744.764 435.296C746.895 450.957 760.212 460.598 781.891 460.598C803.092 460.598 818.273 449.785 818.326 433.645C818.273 421.82 810.549 414.735 794.676 411.486L779.867 408.503C772.25 406.852 769.427 404.241 769.48 400.3C769.427 395.399 774.967 392.203 781.998 392.203C789.882 392.203 794.569 396.518 795.688 401.791L816.462 400.513Z" fill="black"/>
<rect x="71" y="498" width="1038" height="19" fill="black"/>
<path d="M94.267 626.869C106.361 626.869 113.443 617 113.443 599.844C113.443 582.815 106.259 572.92 94.267 572.92C82.25 572.92 75.0909 582.79 75.0653 599.844C75.0653 616.974 82.1477 626.844 94.267 626.869ZM94.267 620.043C87.1847 620.043 82.9148 612.935 82.9148 599.844C82.9403 586.804 87.2102 579.619 94.267 579.619C101.298 579.619 105.594 586.804 105.594 599.844C105.594 612.935 101.324 620.043 94.267 620.043ZM140.485 573.636H132.789L119.724 582.176V589.744L132.252 581.562H132.559V626H140.485V573.636Z" fill="black"/>
</svg>
