<svg width="1200" height="900" viewBox="0 0 1200 900" fill="none" xmlns="http://www.w3.org/2000/svg">
<rect width="1200" height="900" fill="white"/>
<path fill-rule="evenodd" clip-rule="evenodd" d="M296 138H904L296 762V138Z" fill="#555555"/>
<path fill-rule="evenodd" clip-rule="evenodd" d="M904 138V762H296L904 138Z" fill="#3A3A3A"/>
<path d="M390.133 407.909V465H401.841V427.701H402.315L417.09 464.721H425.062L439.837 427.841H440.311V465H452.019V407.909H437.133L421.411 446.267H420.741L405.019 407.909H390.133ZM514.82 436.455C514.82 417.777 503.223 407.129 488.086 407.129C472.866 407.129 461.353 417.777 461.353 436.455C461.353 455.048 472.866 465.781 488.086 465.781C503.223 465.781 514.82 455.132 514.82 436.455ZM502.582 436.455C502.582 448.553 496.839 455.104 488.086 455.104C479.305 455.104 473.59 448.553 473.59 436.455C473.59 424.356 479.305 417.805 488.086 417.805C496.839 417.805 502.582 424.356 502.582 436.455ZM571.906 407.909H559.891V443.814H559.389L534.747 407.909H524.154V465H536.224V429.067H536.642L561.48 465H571.906V407.909ZM634.735 436.455C634.735 417.777 623.138 407.129 608.001 407.129C592.781 407.129 581.268 417.777 581.268 436.455C581.268 455.048 592.781 465.781 608.001 465.781C623.138 465.781 634.735 455.132 634.735 436.455ZM622.497 436.455C622.497 448.553 616.754 455.104 608.001 455.104C599.22 455.104 593.505 448.553 593.505 436.455C593.505 424.356 599.22 417.805 608.001 417.805C616.754 417.805 622.497 424.356 622.497 436.455ZM644.068 465H680.614V455.048H656.139V407.909H644.068V465ZM701.071 407.909H689V465H701.071V407.909ZM709.22 417.861H726.699V465H738.63V417.861H756.108V407.909H709.22V417.861ZM764.222 465H776.293V441.417H800.796V465H812.839V407.909H800.796V431.465H776.293V407.909H764.222V465Z" fill="white"/>
</svg>
