<svg width="1200" height="900" viewBox="0 0 1200 900" fill="none" xmlns="http://www.w3.org/2000/svg">
<rect width="1200" height="900" fill="white"/>
<rect x="296" y="138" width="276" height="284" fill="#FA2A00"/>
<rect x="628" y="138" width="276" height="284" fill="#86B8B1"/>
<rect x="296" y="478" width="276" height="284" fill="#3D1C00"/>
<rect x="628" y="478" width="276" height="284" fill="#F2D694"/>
<path d="M374.557 300L377.094 292.206H389.429L391.965 300H399.71L387.926 265.818H378.613L366.813 300H374.557ZM378.93 286.564L383.136 273.629H383.403L387.609 286.564H378.93ZM425.172 265.818V287.399C425.172 291.304 422.435 294.125 418.229 294.125C414.04 294.125 411.286 291.304 411.286 287.399V265.818H404.059V288.016C404.059 295.494 409.7 300.484 418.229 300.484C426.724 300.484 432.399 295.494 432.399 288.016V265.818H425.172ZM437.278 271.777H447.743V300H454.887V271.777H465.351V265.818H437.278V271.777ZM470.21 300H477.437V285.88H492.107V300H499.318V265.818H492.107V279.922H477.437V265.818H470.21V300Z" fill="white"/>
<path d="M735.247 300L737.784 292.206H750.118L752.655 300H760.399L748.616 265.818H739.302L727.502 300H735.247ZM739.62 286.564L743.826 273.629H744.093L748.299 286.564H739.62ZM764.748 300H771.975V288.918H778.05C785.912 288.918 790.485 284.228 790.485 277.401C790.485 270.608 785.995 265.818 778.234 265.818H764.748V300ZM771.975 283.126V271.727H776.849C781.021 271.727 783.041 273.996 783.041 277.401C783.041 280.789 781.021 283.126 776.882 283.126H771.975ZM802.641 265.818H795.414V300H802.641V265.818Z" fill="white"/>
<path d="M341.375 638H348.418L354.911 615.652H355.178L361.687 638H368.73L378.511 603.818H370.616L364.958 627.619H364.658L358.433 603.818H351.673L345.431 627.569H345.147L339.489 603.818H331.594L341.375 638ZM412.097 620.909C412.097 609.727 405.154 603.351 396.091 603.351C386.979 603.351 380.085 609.727 380.085 620.909C380.085 632.042 386.979 638.467 396.091 638.467C405.154 638.467 412.097 632.092 412.097 620.909ZM404.77 620.909C404.77 628.153 401.332 632.075 396.091 632.075C390.834 632.075 387.412 628.153 387.412 620.909C387.412 613.665 390.834 609.743 396.091 609.743C401.332 609.743 404.77 613.665 404.77 620.909ZM417.686 638H424.913V625.883H430.187L436.663 638H444.641L437.381 624.714C441.269 623.045 443.422 619.657 443.422 614.984C443.422 608.191 438.933 603.818 431.172 603.818H417.686V638ZM424.913 620.075V609.727H429.786C433.959 609.727 435.979 611.579 435.979 614.984C435.979 618.372 433.959 620.075 429.82 620.075H424.913ZM448.765 638H455.992V628.286L459.547 623.947L468.91 638H477.555L464.721 619.123L477.405 603.818H468.743L456.442 618.89H455.992V603.818H448.765V638ZM481.404 638H504.503V632.042H488.631V623.88H503.252V617.922H488.631V609.777H504.437V603.818H481.404V638ZM510.417 638H517.644V625.883H522.918L529.394 638H537.372L530.112 624.714C534.001 623.045 536.154 619.657 536.154 614.984C536.154 608.191 531.664 603.818 523.903 603.818H510.417V638ZM517.644 620.075V609.727H522.518C526.69 609.727 528.71 611.579 528.71 614.984C528.71 618.372 526.69 620.075 522.551 620.075H517.644Z" fill="white"/>
<path d="M639.852 638H647.079V623.88H660.982V617.922H647.079V609.777H662.485V603.818H639.852V638ZM667.581 638H674.808V625.883H680.082L686.558 638H694.536L687.275 624.714C691.164 623.045 693.317 619.657 693.317 614.984C693.317 608.191 688.827 603.818 681.066 603.818H667.581V638ZM674.808 620.075V609.727H679.681C683.854 609.727 685.873 611.579 685.873 614.984C685.873 618.372 683.854 620.075 679.715 620.075H674.808ZM730.071 620.909C730.071 609.727 723.127 603.351 714.065 603.351C704.952 603.351 698.059 609.727 698.059 620.909C698.059 632.042 704.952 638.467 714.065 638.467C723.127 638.467 730.071 632.092 730.071 620.909ZM722.744 620.909C722.744 628.153 719.305 632.075 714.065 632.075C708.807 632.075 705.386 628.153 705.386 620.909C705.386 613.665 708.807 609.743 714.065 609.743C719.305 609.743 722.744 613.665 722.744 620.909ZM764.25 603.818H757.056V625.315H756.756L742.001 603.818H735.659V638H742.886V616.486H743.136L758.007 638H764.25V603.818ZM769.154 609.777H779.619V638H786.762V609.777H797.227V603.818H769.154V609.777ZM802.085 638H825.185V632.042H809.312V623.88H823.933V617.922H809.312V609.777H825.118V603.818H802.085V638ZM859.689 603.818H852.495V625.315H852.195L837.441 603.818H831.098V638H838.325V616.486H838.576L853.447 638H859.689V603.818ZM878.012 638C888.427 638 894.736 631.558 894.736 620.876C894.736 610.227 888.427 603.818 878.112 603.818H865.895V638H878.012ZM873.122 631.808V610.01H877.728C884.137 610.01 887.526 613.282 887.526 620.876C887.526 628.503 884.137 631.808 877.712 631.808H873.122Z" fill="#353535"/>
</svg>
