<svg width="1200" height="900" viewBox="0 0 1200 900" fill="none" xmlns="http://www.w3.org/2000/svg">
<g clip-path="url(#clip0)">
<rect width="1200" height="900" fill="white"/>
<path fill-rule="evenodd" clip-rule="evenodd" d="M852 738C855.314 738 858 740.686 858 744V804C858 807.314 855.314 810 852 810H348C344.686 810 342 807.314 342 804V744C342 740.686 344.686 738 348 738H852Z" fill="#7C7C7C"/>
<rect x="415" y="753" width="340" height="10" fill="#D8D8D8"/>
<path fill-rule="evenodd" clip-rule="evenodd" d="M357 753H379V763H357V753Z" fill="#D7D7D7"/>
<rect x="804" y="753" width="10" height="10" fill="#D7D400"/>
<rect x="789" y="753" width="10" height="10" fill="#FF3C00"/>
<path fill-rule="evenodd" clip-rule="evenodd" d="M820 753H842V762.778H820V753Z" fill="#00CD00"/>
<rect x="415" y="769" width="340" height="10" fill="#D8D8D8"/>
<path fill-rule="evenodd" clip-rule="evenodd" d="M357 769H379V779H357V769Z" fill="#D7D7D7"/>
<rect x="804" y="769" width="10" height="10" fill="#D7D400"/>
<rect x="789" y="769" width="10" height="10" fill="#FF3C00"/>
<path fill-rule="evenodd" clip-rule="evenodd" d="M820 769H842V778.778H820V769Z" fill="#00CD00"/>
<rect x="415" y="785" width="340" height="10" fill="#D8D8D8"/>
<path fill-rule="evenodd" clip-rule="evenodd" d="M357 785H379V795H357V785Z" fill="#D7D7D7"/>
<rect x="804" y="785" width="10" height="10" fill="#D7D400"/>
<rect x="789" y="785" width="10" height="10" fill="#FF3C00"/>
<path fill-rule="evenodd" clip-rule="evenodd" d="M820 785H842V794.778H820V785Z" fill="#00CD00"/>
<path fill-rule="evenodd" clip-rule="evenodd" d="M852 90C855.314 90 858 92.6863 858 96V722.4C858 725.714 855.314 728.4 852 728.4H348C344.686 728.4 342 725.714 342 722.4V96C342 92.6863 344.686 90 348 90H852Z" fill="#7C7C7C"/>
<rect x="357" y="128" width="484" height="556" rx="2.4" fill="white"/>
<path fill-rule="evenodd" clip-rule="evenodd" d="M357.6 104.4H841.6V114.4H357.6V104.4Z" fill="#D7D7D7"/>
<path fill-rule="evenodd" clip-rule="evenodd" d="M357.6 699H841.6V709H357.6V699Z" fill="#D7D7D7"/>
<path fill-rule="evenodd" clip-rule="evenodd" d="M477 144.899V265.65C477 267.251 475.699 268.549 474.095 268.549H371.905C370.301 268.549 369 267.251 369 265.65V144.899C369 143.298 370.301 142 371.905 142H474.095C475.699 142 477 143.298 477 144.899Z" fill="#D2D2D2"/>
<path fill-rule="evenodd" clip-rule="evenodd" d="M411.281 255.758H472.679V258.146H411.281V255.758Z" fill="#A3A3A3"/>
<path fill-rule="evenodd" clip-rule="evenodd" d="M411.281 259.339H472.679V261.727H411.281V259.339Z" fill="#A3A3A3"/>
<path fill-rule="evenodd" clip-rule="evenodd" d="M411.281 262.921H472.679V265.309H411.281V262.921Z" fill="#A3A3A3"/>
<path fill-rule="evenodd" clip-rule="evenodd" d="M373.077 255.758H377.682V258.146H373.077V255.758Z" fill="#A3A3A3"/>
<path fill-rule="evenodd" clip-rule="evenodd" d="M373.077 259.339H377.682V261.727H373.077V259.339Z" fill="#A3A3A3"/>
<path fill-rule="evenodd" clip-rule="evenodd" d="M373.077 262.921H377.682V265.309H373.077V262.921Z" fill="#A3A3A3"/>
<path fill-rule="evenodd" clip-rule="evenodd" d="M373.093 145.923H472.695V148.31H373.093V145.923Z" fill="#A3A3A3"/>
<path fill-rule="evenodd" clip-rule="evenodd" d="M374.28 152.119H472.057C472.7 152.119 473.222 152.641 473.222 153.285V251.113C473.222 251.757 472.7 252.279 472.057 252.279H374.28C373.636 252.279 373.114 251.757 373.114 251.113V153.285C373.114 152.641 373.636 152.119 374.28 152.119Z" fill="white"/>
<g clip-path="url(#clip1)">
<path d="M381.796 256.252H380.386L381.904 260.852H383.611L385.129 256.252H383.719L382.775 259.495H382.74L381.796 256.252ZM386.619 256.252H385.371V260.852H386.619V256.252ZM387.01 260.852H388.258V259.333H388.689L389.498 260.852H390.854L389.92 259.136C390.41 258.9 390.702 258.453 390.702 257.815C390.702 256.836 390.017 256.252 388.995 256.252H387.01V260.852ZM388.258 258.363V257.249H388.698C389.136 257.249 389.399 257.42 389.399 257.815C389.399 258.208 389.136 258.363 388.698 258.363H388.258ZM390.907 257.258H392.29V260.852H393.521V257.258H394.904V256.252H390.907V257.258ZM397.895 256.252V259.091C397.895 259.52 397.587 259.827 397.158 259.827C396.729 259.827 396.421 259.52 396.421 259.091V256.252H395.173V259.199C395.173 260.25 395.968 260.905 397.158 260.905C398.339 260.905 399.143 260.25 399.143 259.199V256.252H397.895ZM400.73 260.852L400.995 259.971H402.513L402.778 260.852H404.126L402.607 256.252H400.901L399.382 260.852H400.73ZM401.278 259.037L401.736 257.519H401.772L402.23 259.037H401.278ZM404.367 260.852H407.475V259.845H405.616V256.252H404.367V260.852Z" fill="#4A4A4A"/>
<path d="M381.357 262.38V266.582H382.474V264.136H382.506L383.442 266.549H384.115L385.051 264.153H385.084V266.582H386.2V262.38H384.78L383.803 264.76H383.754L382.777 262.38H381.357ZM387.648 266.582L387.89 265.778H389.277L389.52 266.582H390.751L389.364 262.38H387.804L386.417 266.582H387.648ZM388.149 264.924L388.567 263.537H388.6L389.019 264.924H388.149ZM394.697 263.956C394.607 262.913 393.844 262.322 392.785 262.322C391.652 262.322 390.757 263.077 390.757 264.481C390.757 265.878 391.628 266.639 392.785 266.639C394.016 266.639 394.64 265.786 394.697 265.072L393.54 265.064C393.482 265.423 393.228 265.646 392.809 265.646C392.253 265.646 391.931 265.252 391.931 264.481C391.931 263.75 392.243 263.315 392.818 263.315C393.257 263.315 393.507 263.574 393.54 263.956H394.697ZM395.031 266.582H396.172V264.94H397.682V266.582H398.823V262.38H397.682V264.021H396.172V262.38H395.031V266.582ZM400.321 262.38H399.181V266.582H400.321V262.38ZM404.314 262.38H403.173V264.579H403.14L401.647 262.38H400.678V266.582H401.819V264.374H401.844L403.362 266.582H404.314V262.38ZM404.67 266.582H407.69V265.663H405.811V264.94H407.542V264.021H405.811V263.299H407.698V262.38H404.67V266.582Z" fill="#4A4A4A"/>
</g>
<path fill-rule="evenodd" clip-rule="evenodd" d="M594.664 144.899V265.65C594.664 267.251 593.363 268.549 591.759 268.549H489.569C487.964 268.549 486.664 267.251 486.664 265.65V144.899C486.664 143.298 487.964 142 489.569 142H591.759C593.363 142 594.664 143.298 594.664 144.899Z" fill="#D2D2D2"/>
<path fill-rule="evenodd" clip-rule="evenodd" d="M528.944 255.758H590.343V258.146H528.944V255.758Z" fill="#A3A3A3"/>
<path fill-rule="evenodd" clip-rule="evenodd" d="M528.944 259.339H590.343V261.727H528.944V259.339Z" fill="#A3A3A3"/>
<path fill-rule="evenodd" clip-rule="evenodd" d="M528.944 262.921H590.343V265.309H528.944V262.921Z" fill="#A3A3A3"/>
<path fill-rule="evenodd" clip-rule="evenodd" d="M490.741 255.758H495.346V258.146H490.741V255.758Z" fill="#A3A3A3"/>
<path fill-rule="evenodd" clip-rule="evenodd" d="M490.741 259.339H495.346V261.727H490.741V259.339Z" fill="#A3A3A3"/>
<path fill-rule="evenodd" clip-rule="evenodd" d="M490.741 262.921H495.346V265.309H490.741V262.921Z" fill="#A3A3A3"/>
<path fill-rule="evenodd" clip-rule="evenodd" d="M490.757 145.923H590.359V148.31H490.757V145.923Z" fill="#A3A3A3"/>
<path fill-rule="evenodd" clip-rule="evenodd" d="M491.943 152.119H589.72C590.364 152.119 590.886 152.641 590.886 153.285V251.113C590.886 251.757 590.364 252.279 589.72 252.279H491.943C491.3 252.279 490.778 251.757 490.778 251.113V153.285C490.778 152.641 491.3 152.119 491.943 152.119Z" fill="white"/>
<g clip-path="url(#clip2)">
<path d="M499.46 256.252H498.05L499.568 260.852H501.274L502.793 256.252H501.382L500.439 259.495H500.403L499.46 256.252ZM504.283 256.252H503.034V260.852H504.283V256.252ZM504.673 260.852H505.922V259.333H506.353L507.161 260.852H508.518L507.584 259.136C508.073 258.9 508.365 258.453 508.365 257.815C508.365 256.836 507.68 256.252 506.658 256.252H504.673V260.852ZM505.922 258.363V257.249H506.362C506.8 257.249 507.063 257.42 507.063 257.815C507.063 258.208 506.8 258.363 506.362 258.363H505.922ZM508.57 257.258H509.954V260.852H511.184V257.258H512.568V256.252H508.57V257.258ZM515.558 256.252V259.091C515.558 259.52 515.25 259.827 514.821 259.827C514.393 259.827 514.085 259.52 514.085 259.091V256.252H512.836V259.199C512.836 260.25 513.631 260.905 514.821 260.905C516.003 260.905 516.807 260.25 516.807 259.199V256.252H515.558ZM518.394 260.852L518.659 259.971H520.177L520.442 260.852H521.789L520.271 256.252H518.564L517.046 260.852H518.394ZM518.941 259.037L519.4 257.519H519.436L519.894 259.037H518.941ZM522.031 260.852H525.139V259.845H523.279V256.252H522.031V260.852Z" fill="#4A4A4A"/>
<path d="M499.021 262.38V266.582H500.137V264.136H500.17L501.106 266.549H501.779L502.714 264.153H502.747V266.582H503.863V262.38H502.443L501.467 264.76H501.417L500.441 262.38H499.021ZM505.312 266.582L505.554 265.778H506.941L507.183 266.582H508.414L507.027 262.38H505.468L504.081 266.582H505.312ZM505.812 264.924L506.231 263.537H506.264L506.682 264.924H505.812ZM512.361 263.956C512.271 262.913 511.507 262.322 510.448 262.322C509.316 262.322 508.421 263.077 508.421 264.481C508.421 265.878 509.291 266.639 510.448 266.639C511.68 266.639 512.303 265.786 512.361 265.072L511.204 265.064C511.146 265.423 510.892 265.646 510.473 265.646C509.917 265.646 509.595 265.252 509.595 264.481C509.595 263.75 509.907 263.315 510.481 263.315C510.92 263.315 511.171 263.574 511.204 263.956H512.361ZM512.694 266.582H513.835V264.94H515.346V266.582H516.486V262.38H515.346V264.021H513.835V262.38H512.694V266.582ZM517.985 262.38H516.844V266.582H517.985V262.38ZM521.978 262.38H520.837V264.579H520.804L519.31 262.38H518.342V266.582H519.483V264.374H519.507L521.026 266.582H521.978V262.38ZM522.333 266.582H525.354V265.663H523.474V264.94H525.206V264.021H523.474V263.299H525.362V262.38H522.333V266.582Z" fill="#4A4A4A"/>
</g>
<path fill-rule="evenodd" clip-rule="evenodd" d="M477 282.641V403.391C477 404.993 475.699 406.291 474.095 406.291H371.905C370.301 406.291 369 404.993 369 403.391V282.641C369 281.04 370.301 279.742 371.905 279.742H474.095C475.699 279.742 477 281.04 477 282.641Z" fill="#D2D2D2"/>
<path fill-rule="evenodd" clip-rule="evenodd" d="M411.281 393.499H472.679V395.887H411.281V393.499Z" fill="#A3A3A3"/>
<path fill-rule="evenodd" clip-rule="evenodd" d="M411.281 397.081H472.679V399.469H411.281V397.081Z" fill="#A3A3A3"/>
<path fill-rule="evenodd" clip-rule="evenodd" d="M411.281 400.663H472.679V403.05H411.281V400.663Z" fill="#A3A3A3"/>
<path fill-rule="evenodd" clip-rule="evenodd" d="M373.077 393.499H377.682V395.887H373.077V393.499Z" fill="#A3A3A3"/>
<path fill-rule="evenodd" clip-rule="evenodd" d="M373.077 397.081H377.682V399.469H373.077V397.081Z" fill="#A3A3A3"/>
<path fill-rule="evenodd" clip-rule="evenodd" d="M373.077 400.663H377.682V403.05H373.077V400.663Z" fill="#A3A3A3"/>
<path fill-rule="evenodd" clip-rule="evenodd" d="M373.093 283.664H472.695V286.052H373.093V283.664Z" fill="#A3A3A3"/>
<path fill-rule="evenodd" clip-rule="evenodd" d="M374.28 289.86H472.056C472.7 289.86 473.222 290.383 473.222 291.027V388.854C473.222 389.498 472.7 390.021 472.056 390.021H374.28C373.636 390.021 373.114 389.498 373.114 388.854V291.027C373.114 290.383 373.636 289.86 374.28 289.86Z" fill="white"/>
<g clip-path="url(#clip3)">
<path d="M381.796 393.994H380.386L381.904 398.593H383.611L385.129 393.994H383.719L382.775 397.237H382.739L381.796 393.994ZM386.619 393.994H385.37V398.593H386.619V393.994ZM387.009 398.593H388.258V397.075H388.689L389.498 398.593H390.854L389.92 396.877C390.41 396.642 390.701 396.195 390.701 395.557C390.701 394.578 390.017 393.994 388.995 393.994H387.009V398.593ZM388.258 396.105V394.991H388.698C389.136 394.991 389.399 395.162 389.399 395.557C389.399 395.95 389.136 396.105 388.698 396.105H388.258ZM390.907 395H392.29V398.593H393.521V395H394.904V393.994H390.907V395ZM397.894 393.994V396.832C397.894 397.261 397.587 397.569 397.158 397.569C396.729 397.569 396.421 397.261 396.421 396.832V393.994H395.173V396.94C395.173 397.991 395.968 398.647 397.158 398.647C398.339 398.647 399.143 397.991 399.143 396.94V393.994H397.894ZM400.73 398.593L400.995 397.713H402.513L402.778 398.593H404.125L402.607 393.994H400.9L399.382 398.593H400.73ZM401.278 396.779L401.736 395.26H401.772L402.23 396.779H401.278ZM404.367 398.593H407.475V397.587H405.616V393.994H404.367V398.593Z" fill="#4A4A4A"/>
<path d="M381.357 400.121V404.324H382.473V401.878H382.506L383.442 404.291H384.115L385.051 401.894H385.083V404.324H386.2V400.121H384.78L383.803 402.501H383.754L382.777 400.121H381.357ZM387.648 404.324L387.89 403.519H389.277L389.519 404.324H390.751L389.363 400.121H387.804L386.417 404.324H387.648ZM388.149 402.666L388.567 401.279H388.6L389.019 402.666H388.149ZM394.697 401.697C394.607 400.655 393.844 400.064 392.785 400.064C391.652 400.064 390.757 400.819 390.757 402.222C390.757 403.62 391.627 404.381 392.785 404.381C394.016 404.381 394.64 403.527 394.697 402.813L393.54 402.805C393.482 403.164 393.228 403.388 392.809 403.388C392.253 403.388 391.931 402.994 391.931 402.222C391.931 401.492 392.243 401.057 392.818 401.057C393.257 401.057 393.507 401.315 393.54 401.697H394.697ZM395.031 404.324H396.172V402.682H397.682V404.324H398.823V400.121H397.682V401.763H396.172V400.121H395.031V404.324ZM400.321 400.121H399.18V404.324H400.321V400.121ZM404.314 400.121H403.173V402.321H403.14L401.646 400.121H400.678V404.324H401.819V402.116H401.843L403.362 404.324H404.314V400.121ZM404.67 404.324H407.69V403.404H405.811V402.682H407.542V401.763H405.811V401.04H407.698V400.121H404.67V404.324Z" fill="#4A4A4A"/>
</g>
<path fill-rule="evenodd" clip-rule="evenodd" d="M594.664 282.641V403.391C594.664 404.993 593.363 406.291 591.759 406.291H489.569C487.964 406.291 486.664 404.993 486.664 403.391V282.641C486.664 281.04 487.964 279.742 489.569 279.742H591.759C593.363 279.742 594.664 281.04 594.664 282.641Z" fill="#D2D2D2"/>
<path fill-rule="evenodd" clip-rule="evenodd" d="M528.944 393.499H590.343V395.887H528.944V393.499Z" fill="#A3A3A3"/>
<path fill-rule="evenodd" clip-rule="evenodd" d="M528.944 397.081H590.343V399.469H528.944V397.081Z" fill="#A3A3A3"/>
<path fill-rule="evenodd" clip-rule="evenodd" d="M528.944 400.663H590.343V403.05H528.944V400.663Z" fill="#A3A3A3"/>
<path fill-rule="evenodd" clip-rule="evenodd" d="M490.741 393.499H495.346V395.887H490.741V393.499Z" fill="#A3A3A3"/>
<path fill-rule="evenodd" clip-rule="evenodd" d="M490.741 397.081H495.346V399.469H490.741V397.081Z" fill="#A3A3A3"/>
<path fill-rule="evenodd" clip-rule="evenodd" d="M490.741 400.663H495.346V403.05H490.741V400.663Z" fill="#A3A3A3"/>
<path fill-rule="evenodd" clip-rule="evenodd" d="M490.757 283.664H590.359V286.052H490.757V283.664Z" fill="#A3A3A3"/>
<path fill-rule="evenodd" clip-rule="evenodd" d="M491.943 289.86H589.72C590.364 289.86 590.886 290.383 590.886 291.027V388.854C590.886 389.498 590.364 390.021 589.72 390.021H491.943C491.3 390.021 490.778 389.498 490.778 388.854V291.027C490.778 290.383 491.3 289.86 491.943 289.86Z" fill="white"/>
<g clip-path="url(#clip4)">
<path d="M499.46 393.994H498.05L499.568 398.593H501.274L502.793 393.994H501.382L500.439 397.237H500.403L499.46 393.994ZM504.283 393.994H503.034V398.593H504.283V393.994ZM504.673 398.593H505.922V397.075H506.353L507.161 398.593H508.518L507.584 396.877C508.073 396.642 508.365 396.195 508.365 395.557C508.365 394.578 507.68 393.994 506.658 393.994H504.673V398.593ZM505.922 396.105V394.991H506.362C506.8 394.991 507.063 395.162 507.063 395.557C507.063 395.95 506.8 396.105 506.362 396.105H505.922ZM508.57 395H509.954V398.593H511.184V395H512.568V393.994H508.57V395ZM515.558 393.994V396.832C515.558 397.261 515.25 397.569 514.821 397.569C514.393 397.569 514.085 397.261 514.085 396.832V393.994H512.836V396.94C512.836 397.991 513.631 398.647 514.821 398.647C516.003 398.647 516.807 397.991 516.807 396.94V393.994H515.558ZM518.394 398.593L518.659 397.713H520.177L520.442 398.593H521.789L520.271 393.994H518.564L517.046 398.593H518.394ZM518.941 396.779L519.4 395.26H519.436L519.894 396.779H518.941ZM522.031 398.593H525.139V397.587H523.279V393.994H522.031V398.593Z" fill="#4A4A4A"/>
<path d="M499.021 400.121V404.324H500.137V401.878H500.17L501.106 404.291H501.779L502.714 401.894H502.747V404.324H503.863V400.121H502.443L501.467 402.501H501.417L500.441 400.121H499.021ZM505.312 404.324L505.554 403.519H506.941L507.183 404.324H508.414L507.027 400.121H505.468L504.081 404.324H505.312ZM505.812 402.666L506.231 401.279H506.264L506.682 402.666H505.812ZM512.361 401.697C512.271 400.655 511.507 400.064 510.448 400.064C509.316 400.064 508.421 400.819 508.421 402.222C508.421 403.62 509.291 404.381 510.448 404.381C511.68 404.381 512.303 403.527 512.361 402.813L511.204 402.805C511.146 403.164 510.892 403.388 510.473 403.388C509.917 403.388 509.595 402.994 509.595 402.222C509.595 401.492 509.907 401.057 510.481 401.057C510.92 401.057 511.171 401.315 511.204 401.697H512.361ZM512.694 404.324H513.835V402.682H515.346V404.324H516.486V400.121H515.346V401.763H513.835V400.121H512.694V404.324ZM517.985 400.121H516.844V404.324H517.985V400.121ZM521.978 400.121H520.837V402.321H520.804L519.31 400.121H518.342V404.324H519.483V402.116H519.507L521.026 404.324H521.978V400.121ZM522.333 404.324H525.354V403.404H523.474V402.682H525.206V401.763H523.474V401.04H525.362V400.121H522.333V404.324Z" fill="#4A4A4A"/>
</g>
<path fill-rule="evenodd" clip-rule="evenodd" d="M477 413.899V534.65C477 536.251 475.699 537.549 474.095 537.549H371.905C370.301 537.549 369 536.251 369 534.65V413.899C369 412.298 370.301 411 371.905 411H474.095C475.699 411 477 412.298 477 413.899Z" fill="#D2D2D2"/>
<path fill-rule="evenodd" clip-rule="evenodd" d="M411.281 524.758H472.679V527.146H411.281V524.758Z" fill="#A3A3A3"/>
<path fill-rule="evenodd" clip-rule="evenodd" d="M411.281 528.339H472.679V530.727H411.281V528.339Z" fill="#A3A3A3"/>
<path fill-rule="evenodd" clip-rule="evenodd" d="M411.281 531.921H472.679V534.309H411.281V531.921Z" fill="#A3A3A3"/>
<path fill-rule="evenodd" clip-rule="evenodd" d="M373.077 524.758H377.682V527.146H373.077V524.758Z" fill="#A3A3A3"/>
<path fill-rule="evenodd" clip-rule="evenodd" d="M373.077 528.339H377.682V530.727H373.077V528.339Z" fill="#A3A3A3"/>
<path fill-rule="evenodd" clip-rule="evenodd" d="M373.077 531.921H377.682V534.309H373.077V531.921Z" fill="#A3A3A3"/>
<path fill-rule="evenodd" clip-rule="evenodd" d="M373.093 414.923H472.695V417.31H373.093V414.923Z" fill="#A3A3A3"/>
<path fill-rule="evenodd" clip-rule="evenodd" d="M374.28 421.119H472.057C472.7 421.119 473.222 421.641 473.222 422.285V520.113C473.222 520.757 472.7 521.279 472.057 521.279H374.28C373.636 521.279 373.114 520.757 373.114 520.113V422.285C373.114 421.641 373.636 421.119 374.28 421.119Z" fill="white"/>
<g clip-path="url(#clip5)">
<path d="M381.796 525.252H380.386L381.904 529.852H383.611L385.129 525.252H383.719L382.775 528.495H382.74L381.796 525.252ZM386.619 525.252H385.371V529.852H386.619V525.252ZM387.01 529.852H388.258V528.333H388.689L389.498 529.852H390.854L389.92 528.136C390.41 527.9 390.702 527.453 390.702 526.815C390.702 525.836 390.017 525.252 388.995 525.252H387.01V529.852ZM388.258 527.363V526.249H388.698C389.136 526.249 389.399 526.42 389.399 526.815C389.399 527.208 389.136 527.363 388.698 527.363H388.258ZM390.907 526.258H392.29V529.852H393.521V526.258H394.904V525.252H390.907V526.258ZM397.895 525.252V528.091C397.895 528.52 397.587 528.827 397.158 528.827C396.729 528.827 396.421 528.52 396.421 528.091V525.252H395.173V528.199C395.173 529.25 395.968 529.905 397.158 529.905C398.339 529.905 399.143 529.25 399.143 528.199V525.252H397.895ZM400.73 529.852L400.995 528.971H402.513L402.778 529.852H404.126L402.607 525.252H400.901L399.382 529.852H400.73ZM401.278 528.037L401.736 526.519H401.772L402.23 528.037H401.278ZM404.367 529.852H407.475V528.845H405.616V525.252H404.367V529.852Z" fill="#4A4A4A"/>
<path d="M381.357 531.38V535.582H382.474V533.136H382.506L383.442 535.549H384.115L385.051 533.153H385.084V535.582H386.2V531.38H384.78L383.803 533.76H383.754L382.777 531.38H381.357ZM387.648 535.582L387.89 534.778H389.277L389.52 535.582H390.751L389.364 531.38H387.804L386.417 535.582H387.648ZM388.149 533.924L388.567 532.537H388.6L389.019 533.924H388.149ZM394.697 532.956C394.607 531.913 393.844 531.322 392.785 531.322C391.652 531.322 390.757 532.077 390.757 533.481C390.757 534.878 391.628 535.639 392.785 535.639C394.016 535.639 394.64 534.786 394.697 534.072L393.54 534.064C393.482 534.423 393.228 534.646 392.809 534.646C392.253 534.646 391.931 534.252 391.931 533.481C391.931 532.75 392.243 532.315 392.818 532.315C393.257 532.315 393.507 532.574 393.54 532.956H394.697ZM395.031 535.582H396.172V533.94H397.682V535.582H398.823V531.38H397.682V533.021H396.172V531.38H395.031V535.582ZM400.321 531.38H399.181V535.582H400.321V531.38ZM404.314 531.38H403.173V533.579H403.14L401.647 531.38H400.678V535.582H401.819V533.374H401.844L403.362 535.582H404.314V531.38ZM404.67 535.582H407.69V534.663H405.811V533.94H407.542V533.021H405.811V532.299H407.698V531.38H404.67V535.582Z" fill="#4A4A4A"/>
</g>
<path fill-rule="evenodd" clip-rule="evenodd" d="M594.664 413.899V534.65C594.664 536.251 593.363 537.549 591.759 537.549H489.569C487.964 537.549 486.664 536.251 486.664 534.65V413.899C486.664 412.298 487.964 411 489.569 411H591.759C593.363 411 594.664 412.298 594.664 413.899Z" fill="#D2D2D2"/>
<path fill-rule="evenodd" clip-rule="evenodd" d="M528.944 524.758H590.343V527.146H528.944V524.758Z" fill="#A3A3A3"/>
<path fill-rule="evenodd" clip-rule="evenodd" d="M528.944 528.339H590.343V530.727H528.944V528.339Z" fill="#A3A3A3"/>
<path fill-rule="evenodd" clip-rule="evenodd" d="M528.944 531.921H590.343V534.309H528.944V531.921Z" fill="#A3A3A3"/>
<path fill-rule="evenodd" clip-rule="evenodd" d="M490.741 524.758H495.346V527.146H490.741V524.758Z" fill="#A3A3A3"/>
<path fill-rule="evenodd" clip-rule="evenodd" d="M490.741 528.339H495.346V530.727H490.741V528.339Z" fill="#A3A3A3"/>
<path fill-rule="evenodd" clip-rule="evenodd" d="M490.741 531.921H495.346V534.309H490.741V531.921Z" fill="#A3A3A3"/>
<path fill-rule="evenodd" clip-rule="evenodd" d="M490.757 414.923H590.359V417.31H490.757V414.923Z" fill="#A3A3A3"/>
<path fill-rule="evenodd" clip-rule="evenodd" d="M491.943 421.119H589.72C590.364 421.119 590.886 421.641 590.886 422.285V520.113C590.886 520.757 590.364 521.279 589.72 521.279H491.943C491.3 521.279 490.778 520.757 490.778 520.113V422.285C490.778 421.641 491.3 421.119 491.943 421.119Z" fill="white"/>
<g clip-path="url(#clip6)">
<path d="M499.46 525.252H498.05L499.568 529.852H501.274L502.793 525.252H501.382L500.439 528.495H500.403L499.46 525.252ZM504.283 525.252H503.034V529.852H504.283V525.252ZM504.673 529.852H505.922V528.333H506.353L507.161 529.852H508.518L507.584 528.136C508.073 527.9 508.365 527.453 508.365 526.815C508.365 525.836 507.68 525.252 506.658 525.252H504.673V529.852ZM505.922 527.363V526.249H506.362C506.8 526.249 507.063 526.42 507.063 526.815C507.063 527.208 506.8 527.363 506.362 527.363H505.922ZM508.57 526.258H509.954V529.852H511.184V526.258H512.568V525.252H508.57V526.258ZM515.558 525.252V528.091C515.558 528.52 515.25 528.827 514.821 528.827C514.393 528.827 514.085 528.52 514.085 528.091V525.252H512.836V528.199C512.836 529.25 513.631 529.905 514.821 529.905C516.003 529.905 516.807 529.25 516.807 528.199V525.252H515.558ZM518.394 529.852L518.659 528.971H520.177L520.442 529.852H521.789L520.271 525.252H518.564L517.046 529.852H518.394ZM518.941 528.037L519.4 526.519H519.436L519.894 528.037H518.941ZM522.031 529.852H525.139V528.845H523.279V525.252H522.031V529.852Z" fill="#4A4A4A"/>
<path d="M499.021 531.38V535.582H500.137V533.136H500.17L501.106 535.549H501.779L502.714 533.153H502.747V535.582H503.863V531.38H502.443L501.467 533.76H501.417L500.441 531.38H499.021ZM505.312 535.582L505.554 534.778H506.941L507.183 535.582H508.414L507.027 531.38H505.468L504.081 535.582H505.312ZM505.812 533.924L506.231 532.537H506.264L506.682 533.924H505.812ZM512.361 532.956C512.271 531.913 511.507 531.322 510.448 531.322C509.316 531.322 508.421 532.077 508.421 533.481C508.421 534.878 509.291 535.639 510.448 535.639C511.68 535.639 512.303 534.786 512.361 534.072L511.204 534.064C511.146 534.423 510.892 534.646 510.473 534.646C509.917 534.646 509.595 534.252 509.595 533.481C509.595 532.75 509.907 532.315 510.481 532.315C510.92 532.315 511.171 532.574 511.204 532.956H512.361ZM512.694 535.582H513.835V533.94H515.346V535.582H516.486V531.38H515.346V533.021H513.835V531.38H512.694V535.582ZM517.985 531.38H516.844V535.582H517.985V531.38ZM521.978 531.38H520.837V533.579H520.804L519.31 531.38H518.342V535.582H519.483V533.374H519.507L521.026 535.582H521.978V531.38ZM522.333 535.582H525.354V534.663H523.474V533.94H525.206V533.021H523.474V532.299H525.362V531.38H522.333V535.582Z" fill="#4A4A4A"/>
</g>
<path fill-rule="evenodd" clip-rule="evenodd" d="M477 551.641V672.391C477 673.993 475.699 675.291 474.095 675.291H371.905C370.301 675.291 369 673.993 369 672.391V551.641C369 550.04 370.301 548.742 371.905 548.742H474.095C475.699 548.742 477 550.04 477 551.641Z" fill="#D2D2D2"/>
<path fill-rule="evenodd" clip-rule="evenodd" d="M411.281 662.499H472.679V664.887H411.281V662.499Z" fill="#A3A3A3"/>
<path fill-rule="evenodd" clip-rule="evenodd" d="M411.281 666.081H472.679V668.469H411.281V666.081Z" fill="#A3A3A3"/>
<path fill-rule="evenodd" clip-rule="evenodd" d="M411.281 669.663H472.679V672.05H411.281V669.663Z" fill="#A3A3A3"/>
<path fill-rule="evenodd" clip-rule="evenodd" d="M373.077 662.499H377.682V664.887H373.077V662.499Z" fill="#A3A3A3"/>
<path fill-rule="evenodd" clip-rule="evenodd" d="M373.077 666.081H377.682V668.469H373.077V666.081Z" fill="#A3A3A3"/>
<path fill-rule="evenodd" clip-rule="evenodd" d="M373.077 669.663H377.682V672.05H373.077V669.663Z" fill="#A3A3A3"/>
<path fill-rule="evenodd" clip-rule="evenodd" d="M373.093 552.664H472.695V555.052H373.093V552.664Z" fill="#A3A3A3"/>
<path fill-rule="evenodd" clip-rule="evenodd" d="M374.28 558.86H472.056C472.7 558.86 473.222 559.383 473.222 560.027V657.854C473.222 658.498 472.7 659.021 472.056 659.021H374.28C373.636 659.021 373.114 658.498 373.114 657.854V560.027C373.114 559.383 373.636 558.86 374.28 558.86Z" fill="white"/>
<g clip-path="url(#clip7)">
<path d="M381.796 662.994H380.386L381.904 667.593H383.611L385.129 662.994H383.719L382.775 666.237H382.739L381.796 662.994ZM386.619 662.994H385.37V667.593H386.619V662.994ZM387.009 667.593H388.258V666.075H388.689L389.498 667.593H390.854L389.92 665.877C390.41 665.642 390.701 665.195 390.701 664.557C390.701 663.578 390.017 662.994 388.995 662.994H387.009V667.593ZM388.258 665.105V663.991H388.698C389.136 663.991 389.399 664.162 389.399 664.557C389.399 664.95 389.136 665.105 388.698 665.105H388.258ZM390.907 664H392.29V667.593H393.521V664H394.904V662.994H390.907V664ZM397.894 662.994V665.832C397.894 666.261 397.587 666.569 397.158 666.569C396.729 666.569 396.421 666.261 396.421 665.832V662.994H395.173V665.94C395.173 666.991 395.968 667.647 397.158 667.647C398.339 667.647 399.143 666.991 399.143 665.94V662.994H397.894ZM400.73 667.593L400.995 666.713H402.513L402.778 667.593H404.125L402.607 662.994H400.9L399.382 667.593H400.73ZM401.278 665.779L401.736 664.26H401.772L402.23 665.779H401.278ZM404.367 667.593H407.475V666.587H405.616V662.994H404.367V667.593Z" fill="#4A4A4A"/>
<path d="M381.357 669.121V673.324H382.473V670.878H382.506L383.442 673.291H384.115L385.051 670.894H385.083V673.324H386.2V669.121H384.78L383.803 671.501H383.754L382.777 669.121H381.357ZM387.648 673.324L387.89 672.519H389.277L389.519 673.324H390.751L389.363 669.121H387.804L386.417 673.324H387.648ZM388.149 671.666L388.567 670.279H388.6L389.019 671.666H388.149ZM394.697 670.697C394.607 669.655 393.844 669.064 392.785 669.064C391.652 669.064 390.757 669.819 390.757 671.222C390.757 672.62 391.627 673.381 392.785 673.381C394.016 673.381 394.64 672.527 394.697 671.813L393.54 671.805C393.482 672.164 393.228 672.388 392.809 672.388C392.253 672.388 391.931 671.994 391.931 671.222C391.931 670.492 392.243 670.057 392.818 670.057C393.257 670.057 393.507 670.315 393.54 670.697H394.697ZM395.031 673.324H396.172V671.682H397.682V673.324H398.823V669.121H397.682V670.763H396.172V669.121H395.031V673.324ZM400.321 669.121H399.18V673.324H400.321V669.121ZM404.314 669.121H403.173V671.321H403.14L401.646 669.121H400.678V673.324H401.819V671.116H401.843L403.362 673.324H404.314V669.121ZM404.67 673.324H407.69V672.404H405.811V671.682H407.542V670.763H405.811V670.04H407.698V669.121H404.67V673.324Z" fill="#4A4A4A"/>
</g>
<path fill-rule="evenodd" clip-rule="evenodd" d="M594.664 551.641V672.391C594.664 673.993 593.363 675.291 591.759 675.291H489.569C487.964 675.291 486.664 673.993 486.664 672.391V551.641C486.664 550.04 487.964 548.742 489.569 548.742H591.759C593.363 548.742 594.664 550.04 594.664 551.641Z" fill="#D2D2D2"/>
<path fill-rule="evenodd" clip-rule="evenodd" d="M528.944 662.499H590.343V664.887H528.944V662.499Z" fill="#A3A3A3"/>
<path fill-rule="evenodd" clip-rule="evenodd" d="M528.944 666.081H590.343V668.469H528.944V666.081Z" fill="#A3A3A3"/>
<path fill-rule="evenodd" clip-rule="evenodd" d="M528.944 669.663H590.343V672.05H528.944V669.663Z" fill="#A3A3A3"/>
<path fill-rule="evenodd" clip-rule="evenodd" d="M490.741 662.499H495.346V664.887H490.741V662.499Z" fill="#A3A3A3"/>
<path fill-rule="evenodd" clip-rule="evenodd" d="M490.741 666.081H495.346V668.469H490.741V666.081Z" fill="#A3A3A3"/>
<path fill-rule="evenodd" clip-rule="evenodd" d="M490.741 669.663H495.346V672.05H490.741V669.663Z" fill="#A3A3A3"/>
<path fill-rule="evenodd" clip-rule="evenodd" d="M490.757 552.664H590.359V555.052H490.757V552.664Z" fill="#A3A3A3"/>
<path fill-rule="evenodd" clip-rule="evenodd" d="M491.943 558.86H589.72C590.364 558.86 590.886 559.383 590.886 560.027V657.854C590.886 658.498 590.364 659.021 589.72 659.021H491.943C491.3 659.021 490.778 658.498 490.778 657.854V560.027C490.778 559.383 491.3 558.86 491.943 558.86Z" fill="white"/>
<g clip-path="url(#clip8)">
<path d="M499.46 662.994H498.05L499.568 667.593H501.274L502.793 662.994H501.382L500.439 666.237H500.403L499.46 662.994ZM504.283 662.994H503.034V667.593H504.283V662.994ZM504.673 667.593H505.922V666.075H506.353L507.161 667.593H508.518L507.584 665.877C508.073 665.642 508.365 665.195 508.365 664.557C508.365 663.578 507.68 662.994 506.658 662.994H504.673V667.593ZM505.922 665.105V663.991H506.362C506.8 663.991 507.063 664.162 507.063 664.557C507.063 664.95 506.8 665.105 506.362 665.105H505.922ZM508.57 664H509.954V667.593H511.184V664H512.568V662.994H508.57V664ZM515.558 662.994V665.832C515.558 666.261 515.25 666.569 514.821 666.569C514.393 666.569 514.085 666.261 514.085 665.832V662.994H512.836V665.94C512.836 666.991 513.631 667.647 514.821 667.647C516.003 667.647 516.807 666.991 516.807 665.94V662.994H515.558ZM518.394 667.593L518.659 666.713H520.177L520.442 667.593H521.789L520.271 662.994H518.564L517.046 667.593H518.394ZM518.941 665.779L519.4 664.26H519.436L519.894 665.779H518.941ZM522.031 667.593H525.139V666.587H523.279V662.994H522.031V667.593Z" fill="#4A4A4A"/>
<path d="M499.021 669.121V673.324H500.137V670.878H500.17L501.106 673.291H501.779L502.714 670.894H502.747V673.324H503.863V669.121H502.443L501.467 671.501H501.417L500.441 669.121H499.021ZM505.312 673.324L505.554 672.519H506.941L507.183 673.324H508.414L507.027 669.121H505.468L504.081 673.324H505.312ZM505.812 671.666L506.231 670.279H506.264L506.682 671.666H505.812ZM512.361 670.697C512.271 669.655 511.507 669.064 510.448 669.064C509.316 669.064 508.421 669.819 508.421 671.222C508.421 672.62 509.291 673.381 510.448 673.381C511.68 673.381 512.303 672.527 512.361 671.813L511.204 671.805C511.146 672.164 510.892 672.388 510.473 672.388C509.917 672.388 509.595 671.994 509.595 671.222C509.595 670.492 509.907 670.057 510.481 670.057C510.92 670.057 511.171 670.315 511.204 670.697H512.361ZM512.694 673.324H513.835V671.682H515.346V673.324H516.486V669.121H515.346V670.763H513.835V669.121H512.694V673.324ZM517.985 669.121H516.844V673.324H517.985V669.121ZM521.978 669.121H520.837V671.321H520.804L519.31 669.121H518.342V673.324H519.483V671.116H519.507L521.026 673.324H521.978V669.121ZM522.333 673.324H525.354V672.404H523.474V671.682H525.206V670.763H523.474V670.04H525.362V669.121H522.333V673.324Z" fill="#4A4A4A"/>
</g>
<path fill-rule="evenodd" clip-rule="evenodd" d="M712 413.899V534.65C712 536.251 710.699 537.549 709.095 537.549H606.905C605.301 537.549 604 536.251 604 534.65V413.899C604 412.298 605.301 411 606.905 411H709.095C710.699 411 712 412.298 712 413.899Z" fill="#D2D2D2"/>
<path fill-rule="evenodd" clip-rule="evenodd" d="M646.281 524.758H707.679V527.146H646.281V524.758Z" fill="#A3A3A3"/>
<path fill-rule="evenodd" clip-rule="evenodd" d="M646.281 528.339H707.679V530.727H646.281V528.339Z" fill="#A3A3A3"/>
<path fill-rule="evenodd" clip-rule="evenodd" d="M646.281 531.921H707.679V534.309H646.281V531.921Z" fill="#A3A3A3"/>
<path fill-rule="evenodd" clip-rule="evenodd" d="M608.077 524.758H612.682V527.146H608.077V524.758Z" fill="#A3A3A3"/>
<path fill-rule="evenodd" clip-rule="evenodd" d="M608.077 528.339H612.682V530.727H608.077V528.339Z" fill="#A3A3A3"/>
<path fill-rule="evenodd" clip-rule="evenodd" d="M608.077 531.921H612.682V534.309H608.077V531.921Z" fill="#A3A3A3"/>
<path fill-rule="evenodd" clip-rule="evenodd" d="M608.093 414.923H707.695V417.31H608.093V414.923Z" fill="#A3A3A3"/>
<path fill-rule="evenodd" clip-rule="evenodd" d="M609.28 421.119H707.057C707.7 421.119 708.222 421.641 708.222 422.285V520.113C708.222 520.757 707.7 521.279 707.057 521.279H609.28C608.636 521.279 608.114 520.757 608.114 520.113V422.285C608.114 421.641 608.636 421.119 609.28 421.119Z" fill="white"/>
<g clip-path="url(#clip9)">
<path d="M616.796 525.252H615.386L616.904 529.852H618.611L620.129 525.252H618.719L617.775 528.495H617.74L616.796 525.252ZM621.619 525.252H620.371V529.852H621.619V525.252ZM622.01 529.852H623.258V528.333H623.689L624.498 529.852H625.854L624.92 528.136C625.41 527.9 625.702 527.453 625.702 526.815C625.702 525.836 625.017 525.252 623.995 525.252H622.01V529.852ZM623.258 527.363V526.249H623.698C624.136 526.249 624.399 526.42 624.399 526.815C624.399 527.208 624.136 527.363 623.698 527.363H623.258ZM625.907 526.258H627.29V529.852H628.521V526.258H629.904V525.252H625.907V526.258ZM632.895 525.252V528.091C632.895 528.52 632.587 528.827 632.158 528.827C631.729 528.827 631.421 528.52 631.421 528.091V525.252H630.173V528.199C630.173 529.25 630.968 529.905 632.158 529.905C633.339 529.905 634.143 529.25 634.143 528.199V525.252H632.895ZM635.73 529.852L635.995 528.971H637.513L637.778 529.852H639.126L637.607 525.252H635.901L634.382 529.852H635.73ZM636.278 528.037L636.736 526.519H636.772L637.23 528.037H636.278ZM639.367 529.852H642.475V528.845H640.616V525.252H639.367V529.852Z" fill="#4A4A4A"/>
<path d="M616.357 531.38V535.582H617.474V533.136H617.506L618.442 535.549H619.115L620.051 533.153H620.084V535.582H621.2V531.38H619.78L618.803 533.76H618.754L617.777 531.38H616.357ZM622.648 535.582L622.89 534.778H624.277L624.52 535.582H625.751L624.364 531.38H622.804L621.417 535.582H622.648ZM623.149 533.924L623.567 532.537H623.6L624.019 533.924H623.149ZM629.697 532.956C629.607 531.913 628.844 531.322 627.785 531.322C626.652 531.322 625.757 532.077 625.757 533.481C625.757 534.878 626.628 535.639 627.785 535.639C629.016 535.639 629.64 534.786 629.697 534.072L628.54 534.064C628.482 534.423 628.228 534.646 627.809 534.646C627.253 534.646 626.931 534.252 626.931 533.481C626.931 532.75 627.243 532.315 627.818 532.315C628.257 532.315 628.507 532.574 628.54 532.956H629.697ZM630.031 535.582H631.172V533.94H632.682V535.582H633.823V531.38H632.682V533.021H631.172V531.38H630.031V535.582ZM635.321 531.38H634.181V535.582H635.321V531.38ZM639.314 531.38H638.173V533.579H638.14L636.647 531.38H635.678V535.582H636.819V533.374H636.844L638.362 535.582H639.314V531.38ZM639.67 535.582H642.69V534.663H640.811V533.94H642.542V533.021H640.811V532.299H642.698V531.38H639.67V535.582Z" fill="#4A4A4A"/>
</g>
<path fill-rule="evenodd" clip-rule="evenodd" d="M829.664 413.899V534.65C829.664 536.251 828.363 537.549 826.759 537.549H724.569C722.964 537.549 721.664 536.251 721.664 534.65V413.899C721.664 412.298 722.964 411 724.569 411H826.759C828.363 411 829.664 412.298 829.664 413.899Z" fill="#D2D2D2"/>
<path fill-rule="evenodd" clip-rule="evenodd" d="M763.945 524.758H825.343V527.146H763.945V524.758Z" fill="#A3A3A3"/>
<path fill-rule="evenodd" clip-rule="evenodd" d="M763.945 528.339H825.343V530.727H763.945V528.339Z" fill="#A3A3A3"/>
<path fill-rule="evenodd" clip-rule="evenodd" d="M763.945 531.921H825.343V534.309H763.945V531.921Z" fill="#A3A3A3"/>
<path fill-rule="evenodd" clip-rule="evenodd" d="M725.741 524.758H730.346V527.146H725.741V524.758Z" fill="#A3A3A3"/>
<path fill-rule="evenodd" clip-rule="evenodd" d="M725.741 528.339H730.346V530.727H725.741V528.339Z" fill="#A3A3A3"/>
<path fill-rule="evenodd" clip-rule="evenodd" d="M725.741 531.921H730.346V534.309H725.741V531.921Z" fill="#A3A3A3"/>
<path fill-rule="evenodd" clip-rule="evenodd" d="M725.757 414.923H825.359V417.31H725.757V414.923Z" fill="#A3A3A3"/>
<path fill-rule="evenodd" clip-rule="evenodd" d="M726.943 421.119H824.72C825.364 421.119 825.886 421.641 825.886 422.285V520.113C825.886 520.757 825.364 521.279 824.72 521.279H726.943C726.3 521.279 725.778 520.757 725.778 520.113V422.285C725.778 421.641 726.3 421.119 726.943 421.119Z" fill="white"/>
<g clip-path="url(#clip10)">
<path d="M734.46 525.252H733.05L734.568 529.852H736.275L737.793 525.252H736.382L735.439 528.495H735.403L734.46 525.252ZM739.283 525.252H738.034V529.852H739.283V525.252ZM739.673 529.852H740.922V528.333H741.353L742.162 529.852H743.518L742.584 528.136C743.073 527.9 743.365 527.453 743.365 526.815C743.365 525.836 742.68 525.252 741.659 525.252H739.673V529.852ZM740.922 527.363V526.249H741.362C741.8 526.249 742.063 526.42 742.063 526.815C742.063 527.208 741.8 527.363 741.362 527.363H740.922ZM743.57 526.258H744.954V529.852H746.184V526.258H747.568V525.252H743.57V526.258ZM750.558 525.252V528.091C750.558 528.52 750.251 528.827 749.822 528.827C749.393 528.827 749.085 528.52 749.085 528.091V525.252H747.836V528.199C747.836 529.25 748.631 529.905 749.822 529.905C751.003 529.905 751.807 529.25 751.807 528.199V525.252H750.558ZM753.394 529.852L753.659 528.971H755.177L755.442 529.852H756.789L755.271 525.252H753.564L752.046 529.852H753.394ZM753.942 528.037L754.4 526.519H754.436L754.894 528.037H753.942ZM757.031 529.852H760.139V528.845H758.279V525.252H757.031V529.852Z" fill="#4A4A4A"/>
<path d="M734.021 531.38V535.582H735.137V533.136H735.17L736.106 535.549H736.779L737.714 533.153H737.747V535.582H738.864V531.38H737.444L736.467 533.76H736.418L735.441 531.38H734.021ZM740.312 535.582L740.554 534.778H741.941L742.183 535.582H743.414L742.027 531.38H740.468L739.081 535.582H740.312ZM740.813 533.924L741.231 532.537H741.264L741.683 533.924H740.813ZM747.361 532.956C747.271 531.913 746.507 531.322 745.449 531.322C744.316 531.322 743.421 532.077 743.421 533.481C743.421 534.878 744.291 535.639 745.449 535.639C746.68 535.639 747.303 534.786 747.361 534.072L746.204 534.064C746.146 534.423 745.892 534.646 745.473 534.646C744.917 534.646 744.595 534.252 744.595 533.481C744.595 532.75 744.907 532.315 745.481 532.315C745.92 532.315 746.171 532.574 746.204 532.956H747.361ZM747.695 535.582H748.835V533.94H750.346V535.582H751.487V531.38H750.346V533.021H748.835V531.38H747.695V535.582ZM752.985 531.38H751.844V535.582H752.985V531.38ZM756.978 531.38H755.837V533.579H755.804L754.31 531.38H753.342V535.582H754.483V533.374H754.507L756.026 535.582H756.978V531.38ZM757.333 535.582H760.354V534.663H758.474V533.94H760.206V533.021H758.474V532.299H760.362V531.38H757.333V535.582Z" fill="#4A4A4A"/>
</g>
<path fill-rule="evenodd" clip-rule="evenodd" d="M712 551.641V672.391C712 673.993 710.699 675.291 709.095 675.291H606.905C605.301 675.291 604 673.993 604 672.391V551.641C604 550.04 605.301 548.742 606.905 548.742H709.095C710.699 548.742 712 550.04 712 551.641Z" fill="#D2D2D2"/>
<path fill-rule="evenodd" clip-rule="evenodd" d="M646.281 662.499H707.679V664.887H646.281V662.499Z" fill="#A3A3A3"/>
<path fill-rule="evenodd" clip-rule="evenodd" d="M646.281 666.081H707.679V668.469H646.281V666.081Z" fill="#A3A3A3"/>
<path fill-rule="evenodd" clip-rule="evenodd" d="M646.281 669.663H707.679V672.05H646.281V669.663Z" fill="#A3A3A3"/>
<path fill-rule="evenodd" clip-rule="evenodd" d="M608.077 662.499H612.682V664.887H608.077V662.499Z" fill="#A3A3A3"/>
<path fill-rule="evenodd" clip-rule="evenodd" d="M608.077 666.081H612.682V668.469H608.077V666.081Z" fill="#A3A3A3"/>
<path fill-rule="evenodd" clip-rule="evenodd" d="M608.077 669.663H612.682V672.05H608.077V669.663Z" fill="#A3A3A3"/>
<path fill-rule="evenodd" clip-rule="evenodd" d="M608.093 552.664H707.695V555.052H608.093V552.664Z" fill="#A3A3A3"/>
<path fill-rule="evenodd" clip-rule="evenodd" d="M609.28 558.86H707.056C707.7 558.86 708.222 559.383 708.222 560.027V657.854C708.222 658.498 707.7 659.021 707.056 659.021H609.28C608.636 659.021 608.114 658.498 608.114 657.854V560.027C608.114 559.383 608.636 558.86 609.28 558.86Z" fill="white"/>
<g clip-path="url(#clip11)">
<path d="M616.796 662.994H615.386L616.904 667.593H618.611L620.129 662.994H618.719L617.775 666.237H617.739L616.796 662.994ZM621.619 662.994H620.37V667.593H621.619V662.994ZM622.009 667.593H623.258V666.075H623.689L624.498 667.593H625.854L624.92 665.877C625.41 665.642 625.701 665.195 625.701 664.557C625.701 663.578 625.017 662.994 623.995 662.994H622.009V667.593ZM623.258 665.105V663.991H623.698C624.136 663.991 624.399 664.162 624.399 664.557C624.399 664.95 624.136 665.105 623.698 665.105H623.258ZM625.907 664H627.29V667.593H628.521V664H629.904V662.994H625.907V664ZM632.894 662.994V665.832C632.894 666.261 632.587 666.569 632.158 666.569C631.729 666.569 631.421 666.261 631.421 665.832V662.994H630.173V665.94C630.173 666.991 630.968 667.647 632.158 667.647C633.339 667.647 634.143 666.991 634.143 665.94V662.994H632.894ZM635.73 667.593L635.995 666.713H637.513L637.778 667.593H639.125L637.607 662.994H635.9L634.382 667.593H635.73ZM636.278 665.779L636.736 664.26H636.772L637.23 665.779H636.278ZM639.367 667.593H642.475V666.587H640.616V662.994H639.367V667.593Z" fill="#4A4A4A"/>
<path d="M616.357 669.121V673.324H617.473V670.878H617.506L618.442 673.291H619.115L620.051 670.894H620.083V673.324H621.2V669.121H619.78L618.803 671.501H618.754L617.777 669.121H616.357ZM622.648 673.324L622.89 672.519H624.277L624.519 673.324H625.751L624.363 669.121H622.804L621.417 673.324H622.648ZM623.149 671.666L623.567 670.279H623.6L624.019 671.666H623.149ZM629.697 670.697C629.607 669.655 628.844 669.064 627.785 669.064C626.652 669.064 625.757 669.819 625.757 671.222C625.757 672.62 626.627 673.381 627.785 673.381C629.016 673.381 629.64 672.527 629.697 671.813L628.54 671.805C628.482 672.164 628.228 672.388 627.809 672.388C627.253 672.388 626.931 671.994 626.931 671.222C626.931 670.492 627.243 670.057 627.818 670.057C628.257 670.057 628.507 670.315 628.54 670.697H629.697ZM630.031 673.324H631.172V671.682H632.682V673.324H633.823V669.121H632.682V670.763H631.172V669.121H630.031V673.324ZM635.321 669.121H634.18V673.324H635.321V669.121ZM639.314 669.121H638.173V671.321H638.14L636.646 669.121H635.678V673.324H636.819V671.116H636.843L638.362 673.324H639.314V669.121ZM639.67 673.324H642.69V672.404H640.811V671.682H642.542V670.763H640.811V670.04H642.698V669.121H639.67V673.324Z" fill="#4A4A4A"/>
</g>
<path fill-rule="evenodd" clip-rule="evenodd" d="M829.664 551.641V672.391C829.664 673.993 828.363 675.291 826.759 675.291H724.569C722.964 675.291 721.664 673.993 721.664 672.391V551.641C721.664 550.04 722.964 548.742 724.569 548.742H826.759C828.363 548.742 829.664 550.04 829.664 551.641Z" fill="#D2D2D2"/>
<path fill-rule="evenodd" clip-rule="evenodd" d="M763.945 662.499H825.343V664.887H763.945V662.499Z" fill="#A3A3A3"/>
<path fill-rule="evenodd" clip-rule="evenodd" d="M763.945 666.081H825.343V668.469H763.945V666.081Z" fill="#A3A3A3"/>
<path fill-rule="evenodd" clip-rule="evenodd" d="M763.945 669.663H825.343V672.05H763.945V669.663Z" fill="#A3A3A3"/>
<path fill-rule="evenodd" clip-rule="evenodd" d="M725.741 662.499H730.346V664.887H725.741V662.499Z" fill="#A3A3A3"/>
<path fill-rule="evenodd" clip-rule="evenodd" d="M725.741 666.081H730.346V668.469H725.741V666.081Z" fill="#A3A3A3"/>
<path fill-rule="evenodd" clip-rule="evenodd" d="M725.741 669.663H730.346V672.05H725.741V669.663Z" fill="#A3A3A3"/>
<path fill-rule="evenodd" clip-rule="evenodd" d="M725.757 552.664H825.359V555.052H725.757V552.664Z" fill="#A3A3A3"/>
<path fill-rule="evenodd" clip-rule="evenodd" d="M726.943 558.86H824.72C825.364 558.86 825.886 559.383 825.886 560.027V657.854C825.886 658.498 825.364 659.021 824.72 659.021H726.943C726.3 659.021 725.778 658.498 725.778 657.854V560.027C725.778 559.383 726.3 558.86 726.943 558.86Z" fill="white"/>
<g clip-path="url(#clip12)">
<path d="M734.46 662.994H733.05L734.568 667.593H736.275L737.793 662.994H736.382L735.439 666.237H735.403L734.46 662.994ZM739.283 662.994H738.034V667.593H739.283V662.994ZM739.673 667.593H740.922V666.075H741.353L742.162 667.593H743.518L742.584 665.877C743.073 665.642 743.365 665.195 743.365 664.557C743.365 663.578 742.68 662.994 741.659 662.994H739.673V667.593ZM740.922 665.105V663.991H741.362C741.8 663.991 742.063 664.162 742.063 664.557C742.063 664.95 741.8 665.105 741.362 665.105H740.922ZM743.57 664H744.954V667.593H746.184V664H747.568V662.994H743.57V664ZM750.558 662.994V665.832C750.558 666.261 750.251 666.569 749.822 666.569C749.393 666.569 749.085 666.261 749.085 665.832V662.994H747.836V665.94C747.836 666.991 748.631 667.647 749.822 667.647C751.003 667.647 751.807 666.991 751.807 665.94V662.994H750.558ZM753.394 667.593L753.659 666.713H755.177L755.442 667.593H756.789L755.271 662.994H753.564L752.046 667.593H753.394ZM753.942 665.779L754.4 664.26H754.436L754.894 665.779H753.942ZM757.031 667.593H760.139V666.587H758.279V662.994H757.031V667.593Z" fill="#4A4A4A"/>
<path d="M734.021 669.121V673.324H735.137V670.878H735.17L736.106 673.291H736.779L737.714 670.894H737.747V673.324H738.864V669.121H737.444L736.467 671.501H736.418L735.441 669.121H734.021ZM740.312 673.324L740.554 672.519H741.941L742.183 673.324H743.414L742.027 669.121H740.468L739.081 673.324H740.312ZM740.813 671.666L741.231 670.279H741.264L741.683 671.666H740.813ZM747.361 670.697C747.271 669.655 746.507 669.064 745.449 669.064C744.316 669.064 743.421 669.819 743.421 671.222C743.421 672.62 744.291 673.381 745.449 673.381C746.68 673.381 747.303 672.527 747.361 671.813L746.204 671.805C746.146 672.164 745.892 672.388 745.473 672.388C744.917 672.388 744.595 671.994 744.595 671.222C744.595 670.492 744.907 670.057 745.481 670.057C745.92 670.057 746.171 670.315 746.204 670.697H747.361ZM747.695 673.324H748.835V671.682H750.346V673.324H751.487V669.121H750.346V670.763H748.835V669.121H747.695V673.324ZM752.985 669.121H751.844V673.324H752.985V669.121ZM756.978 669.121H755.837V671.321H755.804L754.31 669.121H753.342V673.324H754.483V671.116H754.507L756.026 673.324H756.978V669.121ZM757.333 673.324H760.354V672.404H758.474V671.682H760.206V670.763H758.474V670.04H760.362V669.121H757.333V673.324Z" fill="#4A4A4A"/>
</g>
<path fill-rule="evenodd" clip-rule="evenodd" d="M712 144.899V265.65C712 267.251 710.699 268.549 709.095 268.549H606.905C605.301 268.549 604 267.251 604 265.65V144.899C604 143.298 605.301 142 606.905 142H709.095C710.699 142 712 143.298 712 144.899Z" fill="#D2D2D2"/>
<path fill-rule="evenodd" clip-rule="evenodd" d="M646.281 255.758H707.679V258.146H646.281V255.758Z" fill="#A3A3A3"/>
<path fill-rule="evenodd" clip-rule="evenodd" d="M646.281 259.339H707.679V261.727H646.281V259.339Z" fill="#A3A3A3"/>
<path fill-rule="evenodd" clip-rule="evenodd" d="M646.281 262.921H707.679V265.309H646.281V262.921Z" fill="#A3A3A3"/>
<path fill-rule="evenodd" clip-rule="evenodd" d="M608.077 255.758H612.682V258.146H608.077V255.758Z" fill="#A3A3A3"/>
<path fill-rule="evenodd" clip-rule="evenodd" d="M608.077 259.339H612.682V261.727H608.077V259.339Z" fill="#A3A3A3"/>
<path fill-rule="evenodd" clip-rule="evenodd" d="M608.077 262.921H612.682V265.309H608.077V262.921Z" fill="#A3A3A3"/>
<path fill-rule="evenodd" clip-rule="evenodd" d="M608.093 145.923H707.695V148.31H608.093V145.923Z" fill="#A3A3A3"/>
<path fill-rule="evenodd" clip-rule="evenodd" d="M609.28 152.119H707.057C707.7 152.119 708.222 152.641 708.222 153.285V251.113C708.222 251.757 707.7 252.279 707.057 252.279H609.28C608.636 252.279 608.114 251.757 608.114 251.113V153.285C608.114 152.641 608.636 152.119 609.28 152.119Z" fill="white"/>
<g clip-path="url(#clip13)">
<path d="M616.796 256.252H615.386L616.904 260.852H618.611L620.129 256.252H618.719L617.775 259.495H617.74L616.796 256.252ZM621.619 256.252H620.371V260.852H621.619V256.252ZM622.01 260.852H623.258V259.333H623.689L624.498 260.852H625.854L624.92 259.136C625.41 258.9 625.702 258.453 625.702 257.815C625.702 256.836 625.017 256.252 623.995 256.252H622.01V260.852ZM623.258 258.363V257.249H623.698C624.136 257.249 624.399 257.42 624.399 257.815C624.399 258.208 624.136 258.363 623.698 258.363H623.258ZM625.907 257.258H627.29V260.852H628.521V257.258H629.904V256.252H625.907V257.258ZM632.895 256.252V259.091C632.895 259.52 632.587 259.827 632.158 259.827C631.729 259.827 631.421 259.52 631.421 259.091V256.252H630.173V259.199C630.173 260.25 630.968 260.905 632.158 260.905C633.339 260.905 634.143 260.25 634.143 259.199V256.252H632.895ZM635.73 260.852L635.995 259.971H637.513L637.778 260.852H639.126L637.607 256.252H635.901L634.382 260.852H635.73ZM636.278 259.037L636.736 257.519H636.772L637.23 259.037H636.278ZM639.367 260.852H642.475V259.845H640.616V256.252H639.367V260.852Z" fill="#4A4A4A"/>
<path d="M616.357 262.38V266.582H617.474V264.136H617.506L618.442 266.549H619.115L620.051 264.153H620.084V266.582H621.2V262.38H619.78L618.803 264.76H618.754L617.777 262.38H616.357ZM622.648 266.582L622.89 265.778H624.277L624.52 266.582H625.751L624.364 262.38H622.804L621.417 266.582H622.648ZM623.149 264.924L623.567 263.537H623.6L624.019 264.924H623.149ZM629.697 263.956C629.607 262.913 628.844 262.322 627.785 262.322C626.652 262.322 625.757 263.077 625.757 264.481C625.757 265.878 626.628 266.639 627.785 266.639C629.016 266.639 629.64 265.786 629.697 265.072L628.54 265.064C628.482 265.423 628.228 265.646 627.809 265.646C627.253 265.646 626.931 265.252 626.931 264.481C626.931 263.75 627.243 263.315 627.818 263.315C628.257 263.315 628.507 263.574 628.54 263.956H629.697ZM630.031 266.582H631.172V264.94H632.682V266.582H633.823V262.38H632.682V264.021H631.172V262.38H630.031V266.582ZM635.321 262.38H634.181V266.582H635.321V262.38ZM639.314 262.38H638.173V264.579H638.14L636.647 262.38H635.678V266.582H636.819V264.374H636.844L638.362 266.582H639.314V262.38ZM639.67 266.582H642.69V265.663H640.811V264.94H642.542V264.021H640.811V263.299H642.698V262.38H639.67V266.582Z" fill="#4A4A4A"/>
</g>
<path fill-rule="evenodd" clip-rule="evenodd" d="M829.664 144.899V265.65C829.664 267.251 828.363 268.549 826.759 268.549H724.569C722.964 268.549 721.664 267.251 721.664 265.65V144.899C721.664 143.298 722.964 142 724.569 142H826.759C828.363 142 829.664 143.298 829.664 144.899Z" fill="#D2D2D2"/>
<path fill-rule="evenodd" clip-rule="evenodd" d="M763.945 255.758H825.343V258.146H763.945V255.758Z" fill="#A3A3A3"/>
<path fill-rule="evenodd" clip-rule="evenodd" d="M763.945 259.339H825.343V261.727H763.945V259.339Z" fill="#A3A3A3"/>
<path fill-rule="evenodd" clip-rule="evenodd" d="M763.945 262.921H825.343V265.309H763.945V262.921Z" fill="#A3A3A3"/>
<path fill-rule="evenodd" clip-rule="evenodd" d="M725.741 255.758H730.346V258.146H725.741V255.758Z" fill="#A3A3A3"/>
<path fill-rule="evenodd" clip-rule="evenodd" d="M725.741 259.339H730.346V261.727H725.741V259.339Z" fill="#A3A3A3"/>
<path fill-rule="evenodd" clip-rule="evenodd" d="M725.741 262.921H730.346V265.309H725.741V262.921Z" fill="#A3A3A3"/>
<path fill-rule="evenodd" clip-rule="evenodd" d="M725.757 145.923H825.359V148.31H725.757V145.923Z" fill="#A3A3A3"/>
<path fill-rule="evenodd" clip-rule="evenodd" d="M726.943 152.119H824.72C825.364 152.119 825.886 152.641 825.886 153.285V251.113C825.886 251.757 825.364 252.279 824.72 252.279H726.943C726.3 252.279 725.778 251.757 725.778 251.113V153.285C725.778 152.641 726.3 152.119 726.943 152.119Z" fill="white"/>
<g clip-path="url(#clip14)">
<path d="M734.46 256.252H733.05L734.568 260.852H736.275L737.793 256.252H736.382L735.439 259.495H735.403L734.46 256.252ZM739.283 256.252H738.034V260.852H739.283V256.252ZM739.673 260.852H740.922V259.333H741.353L742.162 260.852H743.518L742.584 259.136C743.073 258.9 743.365 258.453 743.365 257.815C743.365 256.836 742.68 256.252 741.659 256.252H739.673V260.852ZM740.922 258.363V257.249H741.362C741.8 257.249 742.063 257.42 742.063 257.815C742.063 258.208 741.8 258.363 741.362 258.363H740.922ZM743.57 257.258H744.954V260.852H746.184V257.258H747.568V256.252H743.57V257.258ZM750.558 256.252V259.091C750.558 259.52 750.251 259.827 749.822 259.827C749.393 259.827 749.085 259.52 749.085 259.091V256.252H747.836V259.199C747.836 260.25 748.631 260.905 749.822 260.905C751.003 260.905 751.807 260.25 751.807 259.199V256.252H750.558ZM753.394 260.852L753.659 259.971H755.177L755.442 260.852H756.789L755.271 256.252H753.564L752.046 260.852H753.394ZM753.942 259.037L754.4 257.519H754.436L754.894 259.037H753.942ZM757.031 260.852H760.139V259.845H758.279V256.252H757.031V260.852Z" fill="#4A4A4A"/>
<path d="M734.021 262.38V266.582H735.137V264.136H735.17L736.106 266.549H736.779L737.714 264.153H737.747V266.582H738.864V262.38H737.444L736.467 264.76H736.418L735.441 262.38H734.021ZM740.312 266.582L740.554 265.778H741.941L742.183 266.582H743.414L742.027 262.38H740.468L739.081 266.582H740.312ZM740.813 264.924L741.231 263.537H741.264L741.683 264.924H740.813ZM747.361 263.956C747.271 262.913 746.507 262.322 745.449 262.322C744.316 262.322 743.421 263.077 743.421 264.481C743.421 265.878 744.291 266.639 745.449 266.639C746.68 266.639 747.303 265.786 747.361 265.072L746.204 265.064C746.146 265.423 745.892 265.646 745.473 265.646C744.917 265.646 744.595 265.252 744.595 264.481C744.595 263.75 744.907 263.315 745.481 263.315C745.92 263.315 746.171 263.574 746.204 263.956H747.361ZM747.695 266.582H748.835V264.94H750.346V266.582H751.487V262.38H750.346V264.021H748.835V262.38H747.695V266.582ZM752.985 262.38H751.844V266.582H752.985V262.38ZM756.978 262.38H755.837V264.579H755.804L754.31 262.38H753.342V266.582H754.483V264.374H754.507L756.026 266.582H756.978V262.38ZM757.333 266.582H760.354V265.663H758.474V264.94H760.206V264.021H758.474V263.299H760.362V262.38H757.333V266.582Z" fill="#4A4A4A"/>
</g>
<path fill-rule="evenodd" clip-rule="evenodd" d="M712 282.641V403.391C712 404.993 710.699 406.291 709.095 406.291H606.905C605.301 406.291 604 404.993 604 403.391V282.641C604 281.04 605.301 279.742 606.905 279.742H709.095C710.699 279.742 712 281.04 712 282.641Z" fill="#D2D2D2"/>
<path fill-rule="evenodd" clip-rule="evenodd" d="M646.281 393.499H707.679V395.887H646.281V393.499Z" fill="#A3A3A3"/>
<path fill-rule="evenodd" clip-rule="evenodd" d="M646.281 397.081H707.679V399.469H646.281V397.081Z" fill="#A3A3A3"/>
<path fill-rule="evenodd" clip-rule="evenodd" d="M646.281 400.663H707.679V403.05H646.281V400.663Z" fill="#A3A3A3"/>
<path fill-rule="evenodd" clip-rule="evenodd" d="M608.077 393.499H612.682V395.887H608.077V393.499Z" fill="#A3A3A3"/>
<path fill-rule="evenodd" clip-rule="evenodd" d="M608.077 397.081H612.682V399.469H608.077V397.081Z" fill="#A3A3A3"/>
<path fill-rule="evenodd" clip-rule="evenodd" d="M608.077 400.663H612.682V403.05H608.077V400.663Z" fill="#A3A3A3"/>
<path fill-rule="evenodd" clip-rule="evenodd" d="M608.093 283.664H707.695V286.052H608.093V283.664Z" fill="#A3A3A3"/>
<path fill-rule="evenodd" clip-rule="evenodd" d="M609.28 289.86H707.056C707.7 289.86 708.222 290.383 708.222 291.027V388.854C708.222 389.498 707.7 390.021 707.056 390.021H609.28C608.636 390.021 608.114 389.498 608.114 388.854V291.027C608.114 290.383 608.636 289.86 609.28 289.86Z" fill="white"/>
<g clip-path="url(#clip15)">
<path d="M616.796 393.994H615.386L616.904 398.593H618.611L620.129 393.994H618.719L617.775 397.237H617.739L616.796 393.994ZM621.619 393.994H620.37V398.593H621.619V393.994ZM622.009 398.593H623.258V397.075H623.689L624.498 398.593H625.854L624.92 396.877C625.41 396.642 625.701 396.195 625.701 395.557C625.701 394.578 625.017 393.994 623.995 393.994H622.009V398.593ZM623.258 396.105V394.991H623.698C624.136 394.991 624.399 395.162 624.399 395.557C624.399 395.95 624.136 396.105 623.698 396.105H623.258ZM625.907 395H627.29V398.593H628.521V395H629.904V393.994H625.907V395ZM632.894 393.994V396.832C632.894 397.261 632.587 397.569 632.158 397.569C631.729 397.569 631.421 397.261 631.421 396.832V393.994H630.173V396.94C630.173 397.991 630.968 398.647 632.158 398.647C633.339 398.647 634.143 397.991 634.143 396.94V393.994H632.894ZM635.73 398.593L635.995 397.713H637.513L637.778 398.593H639.125L637.607 393.994H635.9L634.382 398.593H635.73ZM636.278 396.779L636.736 395.26H636.772L637.23 396.779H636.278ZM639.367 398.593H642.475V397.587H640.616V393.994H639.367V398.593Z" fill="#4A4A4A"/>
<path d="M616.357 400.121V404.324H617.473V401.878H617.506L618.442 404.291H619.115L620.051 401.894H620.083V404.324H621.2V400.121H619.78L618.803 402.501H618.754L617.777 400.121H616.357ZM622.648 404.324L622.89 403.519H624.277L624.519 404.324H625.751L624.363 400.121H622.804L621.417 404.324H622.648ZM623.149 402.666L623.567 401.279H623.6L624.019 402.666H623.149ZM629.697 401.697C629.607 400.655 628.844 400.064 627.785 400.064C626.652 400.064 625.757 400.819 625.757 402.222C625.757 403.62 626.627 404.381 627.785 404.381C629.016 404.381 629.64 403.527 629.697 402.813L628.54 402.805C628.482 403.164 628.228 403.388 627.809 403.388C627.253 403.388 626.931 402.994 626.931 402.222C626.931 401.492 627.243 401.057 627.818 401.057C628.257 401.057 628.507 401.315 628.54 401.697H629.697ZM630.031 404.324H631.172V402.682H632.682V404.324H633.823V400.121H632.682V401.763H631.172V400.121H630.031V404.324ZM635.321 400.121H634.18V404.324H635.321V400.121ZM639.314 400.121H638.173V402.321H638.14L636.646 400.121H635.678V404.324H636.819V402.116H636.843L638.362 404.324H639.314V400.121ZM639.67 404.324H642.69V403.404H640.811V402.682H642.542V401.763H640.811V401.04H642.698V400.121H639.67V404.324Z" fill="#4A4A4A"/>
</g>
<path fill-rule="evenodd" clip-rule="evenodd" d="M829.664 282.641V403.391C829.664 404.993 828.363 406.291 826.759 406.291H724.569C722.964 406.291 721.664 404.993 721.664 403.391V282.641C721.664 281.04 722.964 279.742 724.569 279.742H826.759C828.363 279.742 829.664 281.04 829.664 282.641Z" fill="#D2D2D2"/>
<path fill-rule="evenodd" clip-rule="evenodd" d="M763.945 393.499H825.343V395.887H763.945V393.499Z" fill="#A3A3A3"/>
<path fill-rule="evenodd" clip-rule="evenodd" d="M763.945 397.081H825.343V399.469H763.945V397.081Z" fill="#A3A3A3"/>
<path fill-rule="evenodd" clip-rule="evenodd" d="M763.945 400.663H825.343V403.05H763.945V400.663Z" fill="#A3A3A3"/>
<path fill-rule="evenodd" clip-rule="evenodd" d="M725.741 393.499H730.346V395.887H725.741V393.499Z" fill="#A3A3A3"/>
<path fill-rule="evenodd" clip-rule="evenodd" d="M725.741 397.081H730.346V399.469H725.741V397.081Z" fill="#A3A3A3"/>
<path fill-rule="evenodd" clip-rule="evenodd" d="M725.741 400.663H730.346V403.05H725.741V400.663Z" fill="#A3A3A3"/>
<path fill-rule="evenodd" clip-rule="evenodd" d="M725.757 283.664H825.359V286.052H725.757V283.664Z" fill="#A3A3A3"/>
<path fill-rule="evenodd" clip-rule="evenodd" d="M726.943 289.86H824.72C825.364 289.86 825.886 290.383 825.886 291.027V388.854C825.886 389.498 825.364 390.021 824.72 390.021H726.943C726.3 390.021 725.778 389.498 725.778 388.854V291.027C725.778 290.383 726.3 289.86 726.943 289.86Z" fill="white"/>
<g clip-path="url(#clip16)">
<path d="M734.46 393.994H733.05L734.568 398.593H736.275L737.793 393.994H736.382L735.439 397.237H735.403L734.46 393.994ZM739.283 393.994H738.034V398.593H739.283V393.994ZM739.673 398.593H740.922V397.075H741.353L742.162 398.593H743.518L742.584 396.877C743.073 396.642 743.365 396.195 743.365 395.557C743.365 394.578 742.68 393.994 741.659 393.994H739.673V398.593ZM740.922 396.105V394.991H741.362C741.8 394.991 742.063 395.162 742.063 395.557C742.063 395.95 741.8 396.105 741.362 396.105H740.922ZM743.57 395H744.954V398.593H746.184V395H747.568V393.994H743.57V395ZM750.558 393.994V396.832C750.558 397.261 750.251 397.569 749.822 397.569C749.393 397.569 749.085 397.261 749.085 396.832V393.994H747.836V396.94C747.836 397.991 748.631 398.647 749.822 398.647C751.003 398.647 751.807 397.991 751.807 396.94V393.994H750.558ZM753.394 398.593L753.659 397.713H755.177L755.442 398.593H756.789L755.271 393.994H753.564L752.046 398.593H753.394ZM753.942 396.779L754.4 395.26H754.436L754.894 396.779H753.942ZM757.031 398.593H760.139V397.587H758.279V393.994H757.031V398.593Z" fill="#4A4A4A"/>
<path d="M734.021 400.121V404.324H735.137V401.878H735.17L736.106 404.291H736.779L737.714 401.894H737.747V404.324H738.864V400.121H737.444L736.467 402.501H736.418L735.441 400.121H734.021ZM740.312 404.324L740.554 403.519H741.941L742.183 404.324H743.414L742.027 400.121H740.468L739.081 404.324H740.312ZM740.813 402.666L741.231 401.279H741.264L741.683 402.666H740.813ZM747.361 401.697C747.271 400.655 746.507 400.064 745.449 400.064C744.316 400.064 743.421 400.819 743.421 402.222C743.421 403.62 744.291 404.381 745.449 404.381C746.68 404.381 747.303 403.527 747.361 402.813L746.204 402.805C746.146 403.164 745.892 403.388 745.473 403.388C744.917 403.388 744.595 402.994 744.595 402.222C744.595 401.492 744.907 401.057 745.481 401.057C745.92 401.057 746.171 401.315 746.204 401.697H747.361ZM747.695 404.324H748.835V402.682H750.346V404.324H751.487V400.121H750.346V401.763H748.835V400.121H747.695V404.324ZM752.985 400.121H751.844V404.324H752.985V400.121ZM756.978 400.121H755.837V402.321H755.804L754.31 400.121H753.342V404.324H754.483V402.116H754.507L756.026 404.324H756.978V400.121ZM757.333 404.324H760.354V403.404H758.474V402.682H760.206V401.763H758.474V401.04H760.362V400.121H757.333V404.324Z" fill="#4A4A4A"/>
</g>
<path fill-rule="evenodd" clip-rule="evenodd" d="M374.171 151.889H469.93C470.561 151.889 471.072 152.4 471.072 153.029V248.637C471.072 249.267 470.561 249.777 469.93 249.777H374.171C373.54 249.777 373.029 249.267 373.029 248.637V153.029C373.029 152.4 373.54 151.889 374.171 151.889Z" fill="white"/>
<path fill-rule="evenodd" clip-rule="evenodd" d="M462.76 159.809H381.047V243.617H462.76V159.809Z" fill="#FA2A00"/>
<path fill-rule="evenodd" clip-rule="evenodd" d="M492.511 151.889H588.27C588.901 151.889 589.412 152.4 589.412 153.029V248.637C589.412 249.267 588.901 249.777 588.27 249.777H492.511C491.88 249.777 491.369 249.267 491.369 248.637V153.029C491.369 152.4 491.88 151.889 492.511 151.889Z" fill="white"/>
<path fill-rule="evenodd" clip-rule="evenodd" d="M581.1 159.809H499.387V243.617H581.1V159.809Z" fill="#86B8B1"/>
<path fill-rule="evenodd" clip-rule="evenodd" d="M374.171 287.689H469.93C470.561 287.689 471.072 288.2 471.072 288.829V384.437C471.072 385.067 470.561 385.577 469.93 385.577H374.171C373.54 385.577 373.029 385.067 373.029 384.437V288.829C373.029 288.2 373.54 287.689 374.171 287.689Z" fill="white"/>
<path fill-rule="evenodd" clip-rule="evenodd" d="M462.76 295.609H381.047V379.417H462.76V295.609Z" fill="#3D1C00"/>
<path fill-rule="evenodd" clip-rule="evenodd" d="M581.1 295.609H499.387V379.417H581.1V295.609Z" fill="#F2D694"/>
<path fill-rule="evenodd" clip-rule="evenodd" d="M609.171 151.889H704.93C705.561 151.889 706.072 152.4 706.072 153.029V248.637C706.072 249.267 705.561 249.777 704.93 249.777H609.171C608.54 249.777 608.029 249.267 608.029 248.637V153.029C608.029 152.4 608.54 151.889 609.171 151.889Z" fill="white"/>
<path fill-rule="evenodd" clip-rule="evenodd" d="M697.76 159.809H616.047V243.617H697.76V159.809Z" fill="#FA2A00"/>
<path fill-rule="evenodd" clip-rule="evenodd" d="M727.511 151.889H823.27C823.901 151.889 824.412 152.4 824.412 153.029V248.637C824.412 249.267 823.901 249.777 823.27 249.777H727.511C726.88 249.777 726.369 249.267 726.369 248.637V153.029C726.369 152.4 726.88 151.889 727.511 151.889Z" fill="white"/>
<path fill-rule="evenodd" clip-rule="evenodd" d="M816.1 159.809H734.387V243.617H816.1V159.809Z" fill="#86B8B1"/>
<path fill-rule="evenodd" clip-rule="evenodd" d="M609.171 287.689H704.93C705.561 287.689 706.072 288.2 706.072 288.829V384.437C706.072 385.067 705.561 385.577 704.93 385.577H609.171C608.54 385.577 608.029 385.067 608.029 384.437V288.829C608.029 288.2 608.54 287.689 609.171 287.689Z" fill="white"/>
<path fill-rule="evenodd" clip-rule="evenodd" d="M697.76 295.609H616.047V379.417H697.76V295.609Z" fill="#3D1C00"/>
<path fill-rule="evenodd" clip-rule="evenodd" d="M727.511 287.689H823.27C823.901 287.689 824.412 288.2 824.412 288.829V384.437C824.412 385.067 823.901 385.577 823.27 385.577H727.511C726.88 385.577 726.369 385.067 726.369 384.437V288.829C726.369 288.2 726.88 287.689 727.511 287.689Z" fill="white"/>
<path fill-rule="evenodd" clip-rule="evenodd" d="M816.1 295.609H734.387V379.417H816.1V295.609Z" fill="#F2D694"/>
<path fill-rule="evenodd" clip-rule="evenodd" d="M374.171 420.889H469.93C470.561 420.889 471.072 421.4 471.072 422.029V517.637C471.072 518.267 470.561 518.777 469.93 518.777H374.171C373.54 518.777 373.029 518.267 373.029 517.637V422.029C373.029 421.4 373.54 420.889 374.171 420.889Z" fill="white"/>
<path fill-rule="evenodd" clip-rule="evenodd" d="M462.76 428.809H381.047V512.617H462.76V428.809Z" fill="#FA2A00"/>
<path fill-rule="evenodd" clip-rule="evenodd" d="M492.511 420.889H588.27C588.901 420.889 589.412 421.4 589.412 422.029V517.637C589.412 518.267 588.901 518.777 588.27 518.777H492.511C491.88 518.777 491.369 518.267 491.369 517.637V422.029C491.369 421.4 491.88 420.889 492.511 420.889Z" fill="white"/>
<path fill-rule="evenodd" clip-rule="evenodd" d="M581.1 428.809H499.387V512.617H581.1V428.809Z" fill="#86B8B1"/>
<path fill-rule="evenodd" clip-rule="evenodd" d="M374.171 556.689H469.93C470.561 556.689 471.072 557.2 471.072 557.829V653.437C471.072 654.067 470.561 654.577 469.93 654.577H374.171C373.54 654.577 373.029 654.067 373.029 653.437V557.829C373.029 557.2 373.54 556.689 374.171 556.689Z" fill="white"/>
<path fill-rule="evenodd" clip-rule="evenodd" d="M462.76 564.609H381.047V648.417H462.76V564.609Z" fill="#3D1C00"/>
<path fill-rule="evenodd" clip-rule="evenodd" d="M492.511 556.689H588.27C588.901 556.689 589.412 557.2 589.412 557.829V653.437C589.412 654.067 588.901 654.577 588.27 654.577H492.511C491.88 654.577 491.369 654.067 491.369 653.437V557.829C491.369 557.2 491.88 556.689 492.511 556.689Z" fill="white"/>
<path fill-rule="evenodd" clip-rule="evenodd" d="M581.1 564.609H499.387V648.417H581.1V564.609Z" fill="#F2D694"/>
<path fill-rule="evenodd" clip-rule="evenodd" d="M609.171 420.889H704.93C705.561 420.889 706.072 421.4 706.072 422.029V517.637C706.072 518.267 705.561 518.777 704.93 518.777H609.171C608.54 518.777 608.029 518.267 608.029 517.637V422.029C608.029 421.4 608.54 420.889 609.171 420.889Z" fill="white"/>
<path fill-rule="evenodd" clip-rule="evenodd" d="M697.76 428.809H616.047V512.617H697.76V428.809Z" fill="#FA2A00"/>
<path fill-rule="evenodd" clip-rule="evenodd" d="M727.511 420.889H823.27C823.901 420.889 824.412 421.4 824.412 422.029V517.637C824.412 518.267 823.901 518.777 823.27 518.777H727.511C726.88 518.777 726.369 518.267 726.369 517.637V422.029C726.369 421.4 726.88 420.889 727.511 420.889Z" fill="white"/>
<path fill-rule="evenodd" clip-rule="evenodd" d="M816.1 428.809H734.387V512.617H816.1V428.809Z" fill="#86B8B1"/>
<path fill-rule="evenodd" clip-rule="evenodd" d="M609.171 556.889H704.93C705.561 556.889 706.072 557.4 706.072 558.029V653.637C706.072 654.267 705.561 654.777 704.93 654.777H609.171C608.54 654.777 608.029 654.267 608.029 653.637V558.029C608.029 557.4 608.54 556.889 609.171 556.889Z" fill="white"/>
<path fill-rule="evenodd" clip-rule="evenodd" d="M697.76 564.609H616.047V648.417H697.76V564.609Z" fill="#3D1C00"/>
<path fill-rule="evenodd" clip-rule="evenodd" d="M727.511 556.689H823.27C823.901 556.689 824.412 557.2 824.412 557.829V653.437C824.412 654.067 823.901 654.577 823.27 654.577H727.511C726.88 654.577 726.369 654.067 726.369 653.437V557.829C726.369 557.2 726.88 556.689 727.511 556.689Z" fill="white"/>
<path fill-rule="evenodd" clip-rule="evenodd" d="M816.1 564.609H734.387V648.417H816.1V564.609Z" fill="#F2D694"/>
</g>
<defs>
<clipPath id="clip0">
<rect width="1200" height="900" fill="white"/>
</clipPath>
<clipPath id="clip1">
<rect width="28.6268" height="12.863" fill="white" transform="translate(380.314 254.852)"/>
</clipPath>
<clipPath id="clip2">
<rect width="28.6268" height="12.863" fill="white" transform="translate(497.977 254.852)"/>
</clipPath>
<clipPath id="clip3">
<rect width="28.6268" height="12.863" fill="white" transform="translate(380.313 392.593)"/>
</clipPath>
<clipPath id="clip4">
<rect width="28.6268" height="12.863" fill="white" transform="translate(497.977 392.593)"/>
</clipPath>
<clipPath id="clip5">
<rect width="28.6268" height="12.863" fill="white" transform="translate(380.314 523.852)"/>
</clipPath>
<clipPath id="clip6">
<rect width="28.6268" height="12.863" fill="white" transform="translate(497.977 523.852)"/>
</clipPath>
<clipPath id="clip7">
<rect width="28.6268" height="12.863" fill="white" transform="translate(380.313 661.593)"/>
</clipPath>
<clipPath id="clip8">
<rect width="28.6268" height="12.863" fill="white" transform="translate(497.977 661.593)"/>
</clipPath>
<clipPath id="clip9">
<rect width="28.6268" height="12.863" fill="white" transform="translate(615.314 523.852)"/>
</clipPath>
<clipPath id="clip10">
<rect width="28.6268" height="12.863" fill="white" transform="translate(732.977 523.852)"/>
</clipPath>
<clipPath id="clip11">
<rect width="28.6268" height="12.863" fill="white" transform="translate(615.313 661.593)"/>
</clipPath>
<clipPath id="clip12">
<rect width="28.6268" height="12.863" fill="white" transform="translate(732.977 661.593)"/>
</clipPath>
<clipPath id="clip13">
<rect width="28.6268" height="12.863" fill="white" transform="translate(615.314 254.852)"/>
</clipPath>
<clipPath id="clip14">
<rect width="28.6268" height="12.863" fill="white" transform="translate(732.977 254.852)"/>
</clipPath>
<clipPath id="clip15">
<rect width="28.6268" height="12.863" fill="white" transform="translate(615.313 392.593)"/>
</clipPath>
<clipPath id="clip16">
<rect width="28.6268" height="12.863" fill="white" transform="translate(732.977 392.593)"/>
</clipPath>
</defs>
</svg>
