<svg width="1200" height="900" viewBox="0 0 1200 900" fill="none" xmlns="http://www.w3.org/2000/svg">
<rect width="1200" height="900" fill="white"/>
<path d="M142.215 336.6C142.215 313.438 127.834 300.232 109.062 300.232C90.1865 300.232 75.909 313.438 75.909 336.6C75.909 359.658 90.1865 372.968 109.062 372.968C113.487 372.968 117.67 372.242 121.473 370.79L127.177 377.808H141.143L131.014 365.086C137.928 358.898 142.215 349.218 142.215 336.6ZM103.876 347.386L112.934 359.347C111.724 359.589 110.41 359.728 109.062 359.728C98.1723 359.728 91.0854 351.604 91.0854 336.6C91.0854 321.596 98.1723 313.472 109.062 313.472C119.917 313.472 127.038 321.596 127.038 336.6C127.038 344.309 125.137 350.221 121.853 354.127L116.598 347.386H103.876ZM183.978 349.391C184.013 356.513 179.138 360.246 173.849 360.246C168.283 360.246 164.688 356.34 164.653 350.082V318.9H149.926V352.71C149.961 365.121 157.221 372.691 167.903 372.691C175.889 372.691 181.627 368.578 184.013 362.355H184.566V372H198.705V318.9H183.978V349.391ZM207.385 372H222.112V318.9H207.385V372ZM214.783 312.055C219.173 312.055 222.768 308.702 222.768 304.588C222.768 300.509 219.173 297.155 214.783 297.155C210.427 297.155 206.831 300.509 206.831 304.588C206.831 308.702 210.427 312.055 214.783 312.055ZM254.8 373.037C268.939 373.037 277.824 364.74 278.515 352.537H264.618C263.754 358.206 260.02 361.387 254.973 361.387C248.094 361.387 243.634 355.614 243.634 345.45C243.634 335.425 248.128 329.686 254.973 329.686C260.366 329.686 263.823 333.247 264.618 338.536H278.515C277.893 326.263 268.594 318.209 254.731 318.209C238.621 318.209 228.665 329.375 228.665 345.657C228.665 361.802 238.448 373.037 254.8 373.037ZM284.844 372H299.571V355.13L303.547 350.601L318.032 372H335.282L314.575 341.889L334.28 318.9H317.375L300.366 339.054H299.571V301.2H284.844V372ZM360.417 373.037C373.554 373.037 382.404 366.642 384.478 356.789L370.857 355.89C369.371 359.935 365.568 362.044 360.659 362.044C353.296 362.044 348.629 357.169 348.629 349.253V349.218H384.789V345.173C384.789 327.128 373.865 318.209 359.83 318.209C344.204 318.209 334.075 329.306 334.075 345.692C334.075 362.528 344.065 373.037 360.417 373.037ZM348.629 340.092C348.94 334.042 353.538 329.202 360.072 329.202C366.467 329.202 370.892 333.765 370.927 340.092H348.629ZM391.299 372H406.026V341.958C406.026 335.425 410.797 330.93 417.296 330.93C419.336 330.93 422.136 331.276 423.519 331.726V318.658C422.205 318.347 420.373 318.139 418.887 318.139C412.941 318.139 408.066 321.596 406.13 328.165H405.577V318.9H391.299V372ZM467.03 372.864C475.604 372.864 480.063 367.921 482.103 363.496H482.725V372H497.245V301.2H482.553V327.819H482.103C480.133 323.498 475.88 318.209 466.996 318.209C455.346 318.209 445.493 327.266 445.493 345.519C445.493 363.288 454.931 372.864 467.03 372.864ZM471.697 361.145C464.472 361.145 460.531 354.715 460.531 345.45C460.531 336.254 464.403 329.928 471.697 329.928C478.854 329.928 482.864 335.978 482.864 345.45C482.864 354.922 478.784 361.145 471.697 361.145ZM530.452 373.037C543.589 373.037 552.439 366.642 554.513 356.789L540.892 355.89C539.406 359.935 535.603 362.044 530.694 362.044C523.331 362.044 518.664 357.169 518.664 349.253V349.218H554.824V345.173C554.824 327.128 543.9 318.209 529.864 318.209C514.239 318.209 504.11 329.306 504.11 345.692C504.11 362.528 514.1 373.037 530.452 373.037ZM518.664 340.092C518.975 334.042 523.573 329.202 530.106 329.202C536.502 329.202 540.927 333.765 540.961 340.092H518.664ZM561.334 391.913H576.061V363.496H576.511C578.55 367.921 583.01 372.864 591.583 372.864C603.683 372.864 613.121 363.288 613.121 345.519C613.121 327.266 603.268 318.209 591.618 318.209C582.733 318.209 578.481 323.498 576.511 327.819H575.854V318.9H561.334V391.913ZM575.75 345.45C575.75 335.978 579.76 329.928 586.916 329.928C594.211 329.928 598.083 336.254 598.083 345.45C598.083 354.715 594.142 361.145 586.916 361.145C579.829 361.145 575.75 354.922 575.75 345.45ZM634.565 301.2H619.838V372H634.565V301.2ZM667.254 373.037C683.364 373.037 693.389 362.009 693.389 345.657C693.389 329.202 683.364 318.209 667.254 318.209C651.144 318.209 641.119 329.202 641.119 345.657C641.119 362.009 651.144 373.037 667.254 373.037ZM667.323 361.629C659.89 361.629 656.088 354.819 656.088 345.554C656.088 336.289 659.89 329.444 667.323 329.444C674.617 329.444 678.42 336.289 678.42 345.554C678.42 354.819 674.617 361.629 667.323 361.629ZM707.15 391.913C718.109 391.913 723.917 386.312 726.925 377.739L747.563 318.969L731.972 318.9L720.875 357.895H720.322L709.328 318.9H693.841L712.889 373.521L712.025 375.768C710.089 380.746 706.39 380.988 701.204 379.398L697.886 390.391C699.994 391.29 703.417 391.913 707.15 391.913ZM751.999 372H766.726V340.126C766.726 334.249 770.46 330.343 775.369 330.343C780.209 330.343 783.458 333.662 783.458 338.882V372H797.736V339.573C797.736 334.076 800.882 330.343 806.24 330.343C810.942 330.343 814.468 333.281 814.468 339.193V372H829.16V336.289C829.16 324.777 822.315 318.209 812.428 318.209C804.65 318.209 798.6 322.184 796.422 328.269H795.869C794.175 322.115 788.747 318.209 781.453 318.209C774.297 318.209 768.869 322.011 766.657 328.269H766.035V318.9H751.999V372ZM861.892 373.037C875.029 373.037 883.879 366.642 885.953 356.789L872.332 355.89C870.846 359.935 867.043 362.044 862.134 362.044C854.77 362.044 850.103 357.169 850.103 349.253V349.218H886.264V345.173C886.264 327.128 875.34 318.209 861.304 318.209C845.678 318.209 835.549 329.306 835.549 345.692C835.549 362.528 845.54 373.037 861.892 373.037ZM850.103 340.092C850.415 334.042 855.012 329.202 861.546 329.202C867.942 329.202 872.367 333.765 872.401 340.092H850.103ZM907.501 341.302C907.536 334.457 911.615 330.446 917.561 330.446C923.473 330.446 927.033 334.318 926.999 340.818V372H941.726V338.19C941.726 325.814 934.466 318.209 923.403 318.209C915.521 318.209 909.817 322.08 907.432 328.269H906.81V318.9H892.774V372H907.501V341.302ZM978.476 318.9H968.486V306.178H953.759V318.9H946.499V329.963H953.759V357.619C953.689 368.024 960.776 373.175 971.459 372.726C975.261 372.588 977.958 371.827 979.444 371.343L977.128 360.384C976.402 360.523 974.846 360.868 973.464 360.868C970.525 360.868 968.486 359.762 968.486 355.683V329.963H978.476V318.9ZM1028.39 334.042C1027.08 324.258 1019.19 318.209 1005.78 318.209C992.194 318.209 983.241 324.5 983.275 334.733C983.241 342.684 988.253 347.835 998.625 349.91L1007.82 351.742C1012.45 352.675 1014.56 354.369 1014.63 357.031C1014.56 360.177 1011.14 362.424 1005.99 362.424C1000.73 362.424 997.242 360.177 996.343 355.856L981.858 356.616C983.241 366.78 991.883 373.037 1005.95 373.037C1019.71 373.037 1029.56 366.019 1029.6 355.545C1029.56 347.87 1024.55 343.272 1014.25 341.163L1004.64 339.227C999.696 338.156 997.864 336.462 997.899 333.904C997.864 330.723 1001.46 328.649 1006.02 328.649C1011.14 328.649 1014.18 331.449 1014.91 334.871L1028.39 334.042Z" fill="black"/>
<path d="M77.1535 492H124.999V479.658H92.1225V462.754H122.406V450.412H92.1225V433.542H124.861V421.2H77.1535V492ZM148.526 493.003C156.374 493.003 161.456 489.58 164.048 484.637H164.463V492H178.43V456.185C178.43 443.532 167.713 438.209 155.89 438.209C143.168 438.209 134.802 444.293 132.762 453.973L146.383 455.079C147.385 451.553 150.531 448.96 155.821 448.96C160.833 448.96 163.703 451.484 163.703 455.839V456.047C163.703 459.469 160.073 459.919 150.843 460.818C140.333 461.786 130.895 465.312 130.895 477.169C130.895 487.679 138.397 493.003 148.526 493.003ZM152.744 482.839C148.215 482.839 144.966 480.73 144.966 476.685C144.966 472.537 148.388 470.497 153.574 469.771C156.789 469.322 162.043 468.561 163.806 467.386V473.021C163.806 478.587 159.209 482.839 152.744 482.839ZM230.936 454.042C229.622 444.258 221.74 438.209 208.327 438.209C194.741 438.209 185.787 444.5 185.821 454.733C185.787 462.684 190.8 467.835 201.171 469.91L210.366 471.742C214.999 472.675 217.108 474.369 217.177 477.031C217.108 480.177 213.685 482.424 208.534 482.424C203.279 482.424 199.788 480.177 198.889 475.856L184.404 476.616C185.787 486.78 194.429 493.037 208.5 493.037C222.258 493.037 232.111 486.019 232.146 475.545C232.111 467.87 227.098 463.272 216.796 461.163L207.186 459.227C202.242 458.156 200.41 456.462 200.445 453.904C200.41 450.723 204.005 448.649 208.569 448.649C213.685 448.649 216.727 451.449 217.453 454.871L230.936 454.042ZM238.319 492H253.046V438.9H238.319V492ZM245.717 432.055C250.107 432.055 253.703 428.702 253.703 424.588C253.703 420.509 250.107 417.155 245.717 417.155C241.361 417.155 237.766 420.509 237.766 424.588C237.766 428.702 241.361 432.055 245.717 432.055ZM285.942 493.037C299.078 493.037 307.928 486.642 310.003 476.789L296.382 475.89C294.895 479.935 291.093 482.044 286.184 482.044C278.82 482.044 274.153 477.169 274.153 469.253V469.218H310.314V465.173C310.314 447.128 299.39 438.209 285.354 438.209C269.728 438.209 259.599 449.306 259.599 465.692C259.599 482.528 269.59 493.037 285.942 493.037ZM274.153 460.092C274.464 454.042 279.062 449.202 285.596 449.202C291.992 449.202 296.417 453.765 296.451 460.092H274.153ZM316.824 492H331.551V461.958C331.551 455.425 336.322 450.93 342.821 450.93C344.861 450.93 347.661 451.276 349.044 451.726V438.658C347.73 438.347 345.898 438.139 344.411 438.139C338.465 438.139 333.591 441.596 331.655 448.165H331.102V438.9H316.824V492ZM401.232 438.9H391.241V426.178H376.514V438.9H369.255V449.963H376.514V477.619C376.445 488.024 383.532 493.175 394.214 492.726C398.017 492.588 400.714 491.827 402.2 491.343L399.884 480.384C399.158 480.523 397.602 480.868 396.22 480.868C393.281 480.868 391.241 479.762 391.241 475.683V449.963H401.232V438.9ZM431.147 493.037C447.256 493.037 457.282 482.009 457.282 465.657C457.282 449.202 447.256 438.209 431.147 438.209C415.037 438.209 405.011 449.202 405.011 465.657C405.011 482.009 415.037 493.037 431.147 493.037ZM431.216 481.629C423.783 481.629 419.98 474.819 419.98 465.554C419.98 456.289 423.783 449.444 431.216 449.444C438.51 449.444 442.313 456.289 442.313 465.554C442.313 474.819 438.51 481.629 431.216 481.629ZM483.188 492H497.915V438.9H483.188V492ZM490.586 432.055C494.977 432.055 498.572 428.702 498.572 424.588C498.572 420.509 494.977 417.155 490.586 417.155C486.23 417.155 482.635 420.509 482.635 424.588C482.635 428.702 486.23 432.055 490.586 432.055ZM534.856 438.9H524.865V426.178H510.138V438.9H502.878V449.963H510.138V477.619C510.069 488.024 517.156 493.175 527.838 492.726C531.641 492.588 534.337 491.827 535.824 491.343L533.508 480.384C532.782 480.523 531.226 480.868 529.843 480.868C526.905 480.868 524.865 479.762 524.865 475.683V449.963H534.856V438.9ZM564.978 493.037C578.114 493.037 586.964 486.642 589.039 476.789L575.418 475.89C573.931 479.935 570.129 482.044 565.22 482.044C557.856 482.044 553.189 477.169 553.189 469.253V469.218H589.35V465.173C589.35 447.128 578.426 438.209 564.39 438.209C548.764 438.209 538.635 449.306 538.635 465.692C538.635 482.528 548.626 493.037 564.978 493.037ZM553.189 460.092C553.5 454.042 558.098 449.202 564.632 449.202C571.027 449.202 575.452 453.765 575.487 460.092H553.189ZM595.86 492H610.587V461.958C610.587 455.425 615.358 450.93 621.857 450.93C623.896 450.93 626.697 451.276 628.079 451.726V438.658C626.766 438.347 624.934 438.139 623.447 438.139C617.501 438.139 612.627 441.596 610.691 448.165H610.137V438.9H595.86V492ZM646.214 493.003C654.061 493.003 659.143 489.58 661.736 484.637H662.151V492H676.117V456.185C676.117 443.532 665.401 438.209 653.577 438.209C640.856 438.209 632.49 444.293 630.45 453.973L644.071 455.079C645.073 451.553 648.219 448.96 653.508 448.96C658.521 448.96 661.39 451.484 661.39 455.839V456.047C661.39 459.469 657.76 459.919 648.53 460.818C638.021 461.786 628.583 465.312 628.583 477.169C628.583 487.679 636.085 493.003 646.214 493.003ZM650.432 482.839C645.903 482.839 642.653 480.73 642.653 476.685C642.653 472.537 646.076 470.497 651.261 469.771C654.476 469.322 659.731 468.561 661.494 467.386V473.021C661.494 478.587 656.896 482.839 650.432 482.839ZM712.686 438.9H702.696V426.178H687.969V438.9H680.709V449.963H687.969V477.619C687.899 488.024 694.986 493.175 705.669 492.726C709.471 492.588 712.168 491.827 713.654 491.343L711.338 480.384C710.612 480.523 709.057 480.868 707.674 480.868C704.735 480.868 702.696 479.762 702.696 475.683V449.963H712.686V438.9ZM742.808 493.037C755.945 493.037 764.795 486.642 766.869 476.789L753.248 475.89C751.762 479.935 747.959 482.044 743.05 482.044C735.687 482.044 731.02 477.169 731.02 469.253V469.218H767.18V465.173C767.18 447.128 756.256 438.209 742.22 438.209C726.595 438.209 716.466 449.306 716.466 465.692C716.466 482.528 726.456 493.037 742.808 493.037ZM731.02 460.092C731.331 454.042 735.929 449.202 742.462 449.202C748.858 449.202 753.283 453.765 753.318 460.092H731.02ZM817.113 493.037C833.223 493.037 843.248 482.009 843.248 465.657C843.248 449.202 833.223 438.209 817.113 438.209C801.003 438.209 790.978 449.202 790.978 465.657C790.978 482.009 801.003 493.037 817.113 493.037ZM817.182 481.629C809.75 481.629 805.947 474.819 805.947 465.554C805.947 456.289 809.75 449.444 817.182 449.444C824.477 449.444 828.279 456.289 828.279 465.554C828.279 474.819 824.477 481.629 817.182 481.629ZM864.451 461.302C864.485 454.457 868.565 450.446 874.511 450.446C880.422 450.446 883.983 454.318 883.949 460.818V492H898.676V458.19C898.676 445.814 891.416 438.209 880.353 438.209C872.471 438.209 866.767 442.08 864.382 448.269H863.759V438.9H849.724V492H864.451V461.302Z" fill="#D2D2D2"/>
<path d="M77.1535 612H92.1225V586.902H103.047L116.46 612H132.985L117.946 584.482C126.001 581.025 130.461 574.007 130.461 564.328C130.461 550.257 121.162 541.2 105.086 541.2H77.1535V612ZM92.1225 574.871V553.438H102.217C110.86 553.438 115.043 557.275 115.043 564.328C115.043 571.345 110.86 574.871 102.286 574.871H92.1225ZM161.006 613.037C174.143 613.037 182.993 606.642 185.067 596.789L171.446 595.89C169.96 599.935 166.157 602.044 161.248 602.044C153.885 602.044 149.218 597.169 149.218 589.253V589.218H185.378V585.173C185.378 567.128 174.454 558.209 160.418 558.209C144.793 558.209 134.664 569.306 134.664 585.692C134.664 602.528 144.654 613.037 161.006 613.037ZM149.218 580.092C149.529 574.042 154.127 569.202 160.66 569.202C167.056 569.202 171.481 573.765 171.516 580.092H149.218ZM236.069 574.042C234.756 564.258 226.874 558.209 213.46 558.209C199.874 558.209 190.921 564.5 190.955 574.733C190.921 582.684 195.933 587.835 206.304 589.91L215.5 591.742C220.132 592.675 222.241 594.369 222.31 597.031C222.241 600.177 218.819 602.424 213.668 602.424C208.413 602.424 204.921 600.177 204.023 595.856L189.538 596.616C190.921 606.78 199.563 613.037 213.633 613.037C227.392 613.037 237.245 606.019 237.279 595.545C237.245 587.87 232.232 583.272 221.93 581.163L212.32 579.227C207.376 578.156 205.544 576.462 205.578 573.904C205.544 570.723 209.139 568.649 213.702 568.649C218.819 568.649 221.861 571.449 222.587 574.871L236.069 574.042ZM243.452 612H258.179V558.9H243.452V612ZM250.851 552.055C255.241 552.055 258.836 548.702 258.836 544.588C258.836 540.509 255.241 537.155 250.851 537.155C246.495 537.155 242.899 540.509 242.899 544.588C242.899 548.702 246.495 552.055 250.851 552.055ZM281.603 541.2H266.876V612H281.603V541.2ZM290.3 612H305.027V558.9H290.3V612ZM297.698 552.055C302.088 552.055 305.684 548.702 305.684 544.588C305.684 540.509 302.088 537.155 297.698 537.155C293.342 537.155 289.747 540.509 289.747 544.588C289.747 548.702 293.342 552.055 297.698 552.055ZM337.923 613.037C351.06 613.037 359.91 606.642 361.984 596.789L348.363 595.89C346.877 599.935 343.074 602.044 338.165 602.044C330.801 602.044 326.134 597.169 326.134 589.253V589.218H362.295V585.173C362.295 567.128 351.371 558.209 337.335 558.209C321.709 558.209 311.58 569.306 311.58 585.692C311.58 602.528 321.571 613.037 337.923 613.037ZM326.134 580.092C326.446 574.042 331.043 569.202 337.577 569.202C343.973 569.202 348.398 573.765 348.432 580.092H326.134ZM383.532 581.302C383.567 574.457 387.646 570.446 393.592 570.446C399.504 570.446 403.064 574.318 403.03 580.818V612H417.757V578.19C417.757 565.814 410.497 558.209 399.435 558.209C391.553 558.209 385.848 562.08 383.463 568.269H382.841V558.9H368.805V612H383.532V581.302ZM454.507 558.9H444.517V546.178H429.79V558.9H422.53V569.963H429.79V597.619C429.72 608.024 436.807 613.175 447.49 612.726C451.292 612.588 453.989 611.827 455.475 611.343L453.159 600.384C452.433 600.523 450.878 600.868 449.495 600.868C446.556 600.868 444.517 599.762 444.517 595.683V569.963H454.507V558.9Z" fill="#D2D2D2"/>
<rect x="71" y="159" width="1038" height="8" fill="black"/>
<path d="M74.0657 141H89.1358C97.0584 141 101.278 136.866 101.278 131.252C101.278 126.033 97.5407 122.881 93.5277 122.692V122.347C97.1962 121.521 99.9002 118.92 99.9002 114.769C99.9002 109.482 95.9734 105.727 88.1886 105.727H74.0657V141ZM81.5233 134.903V125.534H87.7752C91.3576 125.534 93.5794 127.6 93.5794 130.511C93.5794 133.164 91.771 134.903 87.603 134.903H81.5233ZM81.5233 120.487V111.755H87.1896C90.4964 111.755 92.3738 113.46 92.3738 116.009C92.3738 118.8 90.1003 120.487 87.0518 120.487H81.5233ZM116.504 141.517C123.049 141.517 127.458 138.33 128.492 133.422L121.706 132.974C120.965 134.989 119.071 136.04 116.625 136.04C112.956 136.04 110.631 133.611 110.631 129.667V129.65H128.647V127.635C128.647 118.645 123.204 114.201 116.212 114.201C108.427 114.201 103.38 119.73 103.38 127.893C103.38 136.281 108.358 141.517 116.504 141.517ZM110.631 125.103C110.786 122.089 113.077 119.678 116.332 119.678C119.518 119.678 121.723 121.951 121.74 125.103H110.631ZM139.227 125.706C139.244 122.296 141.277 120.298 144.239 120.298C147.184 120.298 148.958 122.227 148.941 125.465V141H156.278V124.156C156.278 117.99 152.661 114.201 147.15 114.201C143.223 114.201 140.381 116.13 139.193 119.213H138.883V114.545H131.89V141H139.227V125.706ZM172.572 141.517C179.117 141.517 183.526 138.33 184.559 133.422L177.773 132.974C177.033 134.989 175.138 136.04 172.693 136.04C169.024 136.04 166.699 133.611 166.699 129.667V129.65H184.714V127.635C184.714 118.645 179.272 114.201 172.279 114.201C164.494 114.201 159.448 119.73 159.448 127.893C159.448 136.281 164.425 141.517 172.572 141.517ZM166.699 125.103C166.854 122.089 169.145 119.678 172.4 119.678C175.586 119.678 177.791 121.951 177.808 125.103H166.699ZM202.184 114.545H196.931V112.771C196.931 110.98 197.654 109.93 199.807 109.93C200.685 109.93 201.581 110.119 202.167 110.309L203.458 104.797C202.545 104.522 200.53 104.074 198.274 104.074C193.297 104.074 189.594 106.881 189.594 112.634V114.545H185.856V120.057H189.594V141H196.931V120.057H202.184V114.545ZM205.121 141H212.458V114.545H205.121V141ZM208.807 111.135C210.995 111.135 212.786 109.465 212.786 107.415C212.786 105.383 210.995 103.712 208.807 103.712C206.637 103.712 204.846 105.383 204.846 107.415C204.846 109.465 206.637 111.135 208.807 111.135ZM230.862 114.545H225.885V108.207H218.548V114.545H214.931V120.057H218.548V133.835C218.514 139.019 222.044 141.586 227.366 141.362C229.261 141.293 230.604 140.914 231.345 140.673L230.191 135.213C229.829 135.282 229.054 135.454 228.365 135.454C226.901 135.454 225.885 134.903 225.885 132.871V120.057H230.862V114.545ZM255.729 122.089C255.075 117.215 251.148 114.201 244.466 114.201C237.697 114.201 233.236 117.336 233.253 122.434C233.236 126.395 235.733 128.961 240.9 129.994L245.482 130.907C247.79 131.372 248.84 132.216 248.875 133.542C248.84 135.11 247.135 136.229 244.569 136.229C241.951 136.229 240.211 135.11 239.764 132.957L232.547 133.336C233.236 138.399 237.542 141.517 244.552 141.517C251.406 141.517 256.315 138.02 256.332 132.802C256.315 128.978 253.818 126.688 248.685 125.637L243.897 124.673C241.434 124.139 240.521 123.295 240.539 122.02C240.521 120.436 242.313 119.402 244.586 119.402C247.135 119.402 248.651 120.797 249.012 122.502L255.729 122.089ZM281.041 141.517C289.067 141.517 294.062 136.023 294.062 127.876C294.062 119.678 289.067 114.201 281.041 114.201C273.015 114.201 268.02 119.678 268.02 127.876C268.02 136.023 273.015 141.517 281.041 141.517ZM281.075 135.833C277.372 135.833 275.478 132.44 275.478 127.824C275.478 123.209 277.372 119.798 281.075 119.798C284.709 119.798 286.604 123.209 286.604 127.824C286.604 132.44 284.709 135.833 281.075 135.833ZM311.514 114.545H306.261V112.771C306.261 110.98 306.984 109.93 309.137 109.93C310.016 109.93 310.911 110.119 311.497 110.309L312.788 104.797C311.876 104.522 309.861 104.074 307.604 104.074C302.627 104.074 298.924 106.881 298.924 112.634V114.545H295.187V120.057H298.924V141H306.261V120.057H311.514V114.545ZM341.097 129.736C341.114 133.284 338.686 135.144 336.05 135.144C333.278 135.144 331.486 133.198 331.469 130.081V114.545H324.132V131.39C324.149 137.573 327.766 141.344 333.088 141.344C337.067 141.344 339.926 139.295 341.114 136.195H341.39V141H348.434V114.545H341.097V129.736ZM374.769 122.089C374.114 117.215 370.188 114.201 363.505 114.201C356.736 114.201 352.276 117.336 352.293 122.434C352.276 126.395 354.773 128.961 359.94 129.994L364.521 130.907C366.829 131.372 367.88 132.216 367.914 133.542C367.88 135.11 366.175 136.229 363.608 136.229C360.991 136.229 359.251 135.11 358.803 132.957L351.587 133.336C352.276 138.399 356.581 141.517 363.591 141.517C370.446 141.517 375.355 138.02 375.372 132.802C375.355 128.978 372.857 126.688 367.725 125.637L362.937 124.673C360.474 124.139 359.561 123.295 359.578 122.02C359.561 120.436 361.352 119.402 363.626 119.402C366.175 119.402 367.69 120.797 368.052 122.502L374.769 122.089ZM378.447 141H385.784V114.545H378.447V141ZM382.133 111.135C384.32 111.135 386.112 109.465 386.112 107.415C386.112 105.383 384.32 103.712 382.133 103.712C379.963 103.712 378.172 105.383 378.172 107.415C378.172 109.465 379.963 111.135 382.133 111.135ZM397.454 125.706C397.471 122.296 399.504 120.298 402.466 120.298C405.411 120.298 407.185 122.227 407.168 125.465V141H414.505V124.156C414.505 117.99 410.888 114.201 405.377 114.201C401.45 114.201 398.608 116.13 397.42 119.213H397.11V114.545H390.117V141H397.454V125.706ZM430.661 151.472C438.222 151.472 443.596 148.027 443.596 141.258V114.545H436.31V118.989H436.035C435.053 116.836 432.9 114.201 428.474 114.201C422.67 114.201 417.761 118.713 417.761 127.721C417.761 136.522 422.532 140.621 428.491 140.621C432.711 140.621 435.07 138.503 436.035 136.315H436.345V141.155C436.345 144.789 434.02 146.201 430.833 146.201C427.595 146.201 425.959 144.789 425.356 143.187L418.571 144.1C419.449 148.268 423.531 151.472 430.661 151.472ZM430.816 135.11C427.217 135.11 425.253 132.251 425.253 127.687C425.253 123.191 427.182 120.04 430.816 120.04C434.381 120.04 436.379 123.054 436.379 127.687C436.379 132.354 434.347 135.11 430.816 135.11ZM469.523 141.517C476.567 141.517 480.993 137.383 481.338 131.303H474.414C473.984 134.128 472.124 135.713 469.609 135.713C466.182 135.713 463.96 132.836 463.96 127.773C463.96 122.778 466.199 119.919 469.609 119.919C472.296 119.919 474.018 121.693 474.414 124.328H481.338C481.028 118.214 476.395 114.201 469.489 114.201C461.463 114.201 456.502 119.764 456.502 127.876C456.502 135.919 461.376 141.517 469.523 141.517ZM496.444 141.517C504.47 141.517 509.464 136.023 509.464 127.876C509.464 119.678 504.47 114.201 496.444 114.201C488.418 114.201 483.423 119.678 483.423 127.876C483.423 136.023 488.418 141.517 496.444 141.517ZM496.478 135.833C492.775 135.833 490.881 132.44 490.881 127.824C490.881 123.209 492.775 119.798 496.478 119.798C500.112 119.798 502.007 123.209 502.007 127.824C502.007 132.44 500.112 135.833 496.478 135.833ZM520.027 125.706C520.045 122.296 522.077 120.298 525.039 120.298C527.985 120.298 529.758 122.227 529.741 125.465V141H537.078V124.156C537.078 117.99 533.461 114.201 527.95 114.201C524.023 114.201 521.181 116.13 519.993 119.213H519.683V114.545H512.69V141H520.027V125.706ZM555.388 114.545H550.41V108.207H543.073V114.545H539.456V120.057H543.073V133.835C543.039 139.019 546.569 141.586 551.891 141.362C553.786 141.293 555.129 140.914 555.87 140.673L554.716 135.213C554.354 135.282 553.579 135.454 552.89 135.454C551.426 135.454 550.41 134.903 550.41 132.871V120.057H555.388V114.545ZM566.166 141.499C570.076 141.499 572.607 139.794 573.899 137.331H574.106V141H581.064V123.157C581.064 116.853 575.725 114.201 569.834 114.201C563.496 114.201 559.328 117.232 558.312 122.055L565.098 122.606C565.598 120.849 567.165 119.557 569.8 119.557C572.297 119.557 573.727 120.815 573.727 122.985V123.088C573.727 124.793 571.918 125.017 567.32 125.465C562.084 125.947 557.382 127.704 557.382 133.611C557.382 138.847 561.12 141.499 566.166 141.499ZM568.267 136.436C566.011 136.436 564.392 135.385 564.392 133.37C564.392 131.303 566.097 130.287 568.681 129.926C570.282 129.702 572.9 129.323 573.779 128.737V131.545C573.779 134.317 571.488 136.436 568.267 136.436ZM585.212 141H592.549V114.545H585.212V141ZM588.897 111.135C591.085 111.135 592.876 109.465 592.876 107.415C592.876 105.383 591.085 103.712 588.897 103.712C586.727 103.712 584.936 105.383 584.936 107.415C584.936 109.465 586.727 111.135 588.897 111.135ZM604.218 125.706C604.236 122.296 606.268 120.298 609.23 120.298C612.175 120.298 613.949 122.227 613.932 125.465V141H621.269V124.156C621.269 117.99 617.652 114.201 612.141 114.201C608.214 114.201 605.372 116.13 604.184 119.213H603.874V114.545H596.881V141H604.218V125.706ZM637.563 141.517C644.108 141.517 648.517 138.33 649.55 133.422L642.765 132.974C642.024 134.989 640.129 136.04 637.684 136.04C634.015 136.04 631.69 133.611 631.69 129.667V129.65H649.705V127.635C649.705 118.645 644.263 114.201 637.27 114.201C629.486 114.201 624.439 119.73 624.439 127.893C624.439 136.281 629.417 141.517 637.563 141.517ZM631.69 125.103C631.845 122.089 634.136 119.678 637.391 119.678C640.577 119.678 642.782 121.951 642.799 125.103H631.69ZM652.949 141H660.286V126.033C660.286 122.778 662.663 120.539 665.901 120.539C666.917 120.539 668.312 120.711 669.001 120.935V114.425C668.346 114.27 667.433 114.167 666.693 114.167C663.73 114.167 661.302 115.889 660.338 119.161H660.062V114.545H652.949V141ZM693.261 122.089C692.606 117.215 688.679 114.201 681.997 114.201C675.228 114.201 670.767 117.336 670.784 122.434C670.767 126.395 673.265 128.961 678.432 129.994L683.013 130.907C685.321 131.372 686.371 132.216 686.406 133.542C686.371 135.11 684.666 136.229 682.1 136.229C679.482 136.229 677.743 135.11 677.295 132.957L670.078 133.336C670.767 138.399 675.073 141.517 682.083 141.517C688.938 141.517 693.846 138.02 693.863 132.802C693.846 128.978 691.349 126.688 686.216 125.637L681.428 124.673C678.965 124.139 678.053 123.295 678.07 122.02C678.053 120.436 679.844 119.402 682.117 119.402C684.666 119.402 686.182 120.797 686.544 122.502L693.261 122.089Z" fill="black"/>
</svg>
