<svg width="512" height="512" viewBox="0 0 512 512" fill="none" xmlns="http://www.w3.org/2000/svg">
<path d="M256 512C397.385 512 512 397.385 512 256C512 114.615 397.385 0 256 0C114.615 0 0 114.615 0 256C0 397.385 114.615 512 256 512Z" fill="#7A4F27"/>
<path d="M275.94 511.231C386.001 502.751 476.558 424.67 503.68 320.934L361.624 178.878L244.571 350.303L255.375 361.107L155.042 390.332L275.94 511.231Z" fill="url(#paint0_linear)"/>
<path d="M296.439 113.693H171.613C159.884 113.693 150.376 123.202 150.376 134.93V377.07C150.376 388.799 159.885 398.307 171.613 398.307H340.387C352.116 398.307 361.624 388.798 361.624 377.07V178.878L296.439 113.693Z" fill="#FFAA00"/>
<path d="M317.676 178.878H361.624L296.44 113.694V157.642C296.439 169.37 305.947 178.878 317.676 178.878Z" fill="#FFD479"/>
<path d="M271.319 240.414V219.491H187.168V302.435H240.683V323.36H324.834V240.414H271.319ZM194.062 226.387H264.421V295.54H194.062V226.387ZM317.938 316.464H247.579V302.435H271.319V247.308H317.939V316.464H317.938Z" fill="url(#paint1_linear)"/>
<path d="M162.25 193.5V131C162.25 106.136 172.127 82.2903 189.709 64.7087C207.29 47.1272 231.136 37.25 256 37.25C280.864 37.25 304.71 47.1272 322.291 64.7087C339.873 82.2903 349.75 106.136 349.75 131V193.5" stroke="#C0010C" stroke-width="16" stroke-linecap="round" stroke-linejoin="round"/>
<path d="M349.75 203.917C349.75 209.442 347.555 214.741 343.648 218.648C339.741 222.555 334.442 224.75 328.917 224.75H318.5C312.975 224.75 307.676 222.555 303.769 218.648C299.862 214.741 297.667 209.442 297.667 203.917V172.667C297.667 167.141 299.862 161.842 303.769 157.935C307.676 154.028 312.975 151.833 318.5 151.833H349.75V203.917ZM162.25 203.917C162.25 209.442 164.445 214.741 168.352 218.648C172.259 222.555 177.558 224.75 183.083 224.75H193.5C199.025 224.75 204.324 222.555 208.231 218.648C212.138 214.741 214.333 209.442 214.333 203.917V172.667C214.333 167.141 212.138 161.842 208.231 157.935C204.324 154.028 199.025 151.833 193.5 151.833H162.25V203.917Z" stroke="#C0010C" stroke-width="16" stroke-linecap="round" stroke-linejoin="round"/>
<defs>
<linearGradient id="paint0_linear" x1="329.361" y1="178.878" x2="329.361" y2="511.231" gradientUnits="userSpaceOnUse">
<stop stop-color="#C10606"/>
<stop offset="1" stop-color="#C10606" stop-opacity="0.38"/>
</linearGradient>
<linearGradient id="paint1_linear" x1="256.001" y1="219.491" x2="256.001" y2="323.36" gradientUnits="userSpaceOnUse">
<stop stop-color="#DF2323"/>
<stop offset="1" stop-color="white" stop-opacity="0.97"/>
</linearGradient>
</defs>
</svg>
